STARTFONT 2.1
FONT --Helv18H-Regular-R-Normal--40-400-72-72-P-248-FONTSPECIFIC-0
SIZE 40 72 72
FONTBOUNDINGBOX 44 40 0 -8
METRICSSET 2
STARTPROPERTIES 19
FONT_ASCENT 32
FONT_DESCENT 8
PIXEL_SIZE 40
RESOLUTION_X 72
RESOLUTION_Y 72
POINT_SIZE 400
FACE_NAME "Modern 18-point H"
FOUNDRY ""
FAMILY_NAME "Helv18H"
WEIGHT_NAME "Regular"
RELATIVE_WEIGHT 50
SLANT "R"
SPACING "P"
SETWIDTH_NAME "Normal"
RELATIVE_SETWIDTH 50
ADD_STYLE_NAME ""
AVERAGE_WIDTH 248
CHARSET_REGISTRY "FONTSPECIFIC"
CHARSET_ENCODING "0"
ENDPROPERTIES
CHARS 193
STARTCHAR char08
ENCODING 8
SWIDTH 600 0
DWIDTH 24 0
BBX 20 24 2 1
VVECTOR 12 32
SWIDTH1 0 -1000
DWIDTH1 0 -40
BITMAP 
C00000
C00000
C00000
C00000
C00000
C00000
C00000
C00000
C30000
C70000
CF0000
DFFFF0
CF0000
C70000
C30000
C00000
C00000
C00000
C00000
C00000
C00000
C00000
C00000
C00000
ENDCHAR
STARTCHAR char09
ENCODING 9
SWIDTH 600 0
DWIDTH 24 0
BBX 20 24 2 1
VVECTOR 12 32
SWIDTH1 0 -1000
DWIDTH1 0 -40
BITMAP 
000030
000030
000030
000030
000030
000030
000030
000030
000C30
000E30
000F30
FFFFB0
000F30
000E30
000C30
000030
000030
000030
000030
000030
000030
000030
000030
000030
ENDCHAR
STARTCHAR char0C
ENCODING 12
SWIDTH 875 0
DWIDTH 35 0
BBX 27 27 4 0
VVECTOR 18 32
SWIDTH1 0 -1000
DWIDTH1 0 -40
BITMAP 
FFFFFFE0
FFFFFFE0
E00000E0
E00000E0
E00000E0
E00000E0
E00000E0
E00000E0
E00000E0
E00000E0
E00000E0
E00000E0
E00000E0
E00000E0
E00000E0
E00000E0
E00000E0
E00000E0
E00000E0
E00400E0
E00E00E0
E01F00E0
E03F80E0
F87FC3E0
00FFE000
01FFF000
03FFF800
ENDCHAR
STARTCHAR char0D
ENCODING 13
SWIDTH 875 0
DWIDTH 35 0
BBX 27 28 4 -1
VVECTOR 18 32
SWIDTH1 0 -1000
DWIDTH1 0 -40
BITMAP 
00FFFC00
00FFFF00
00000F80
000003C0
000001C0
000001E0
000000E0
000000E0
000000E0
000000E0
000000E0
000000E0
000000E0
000000E0
000000E0
000000E0
060000E0
0E0000E0
1E0001E0
3E0001C0
7E0003C0
FE000F80
FFFFFF00
7FFFFC00
3E000000
1E000000
0E000000
06000000
ENDCHAR
STARTCHAR char1C
ENCODING 28
SWIDTH 600 0
DWIDTH 24 0
BBX 21 10 2 9
VVECTOR 13 32
SWIDTH1 0 -1000
DWIDTH1 0 -40
BITMAP 
0C0000
1C0000
3C0000
7C0000
FFFFF8
FFFFF8
7C0000
3C0000
1C0000
0C0000
ENDCHAR
STARTCHAR char1D
ENCODING 29
SWIDTH 600 0
DWIDTH 24 0
BBX 21 10 1 9
VVECTOR 12 32
SWIDTH1 0 -1000
DWIDTH1 0 -40
BITMAP 
000180
0001C0
0001E0
0001F0
FFFFF8
FFFFF8
0001F0
0001E0
0001C0
000180
ENDCHAR
STARTCHAR char1E
ENCODING 30
SWIDTH 600 0
DWIDTH 24 0
BBX 11 20 6 5
VVECTOR 12 32
SWIDTH1 0 -1000
DWIDTH1 0 -40
BITMAP 
0400
0E00
1F00
3F80
7FC0
FFE0
0E00
0E00
0E00
0E00
0E00
0E00
0E00
0E00
0E00
0E00
0E00
0E00
0E00
0E00
ENDCHAR
STARTCHAR char1F
ENCODING 31
SWIDTH 600 0
DWIDTH 24 0
BBX 11 20 6 5
VVECTOR 12 32
SWIDTH1 0 -1000
DWIDTH1 0 -40
BITMAP 
0E00
0E00
0E00
0E00
0E00
0E00
0E00
0E00
0E00
0E00
0E00
0E00
0E00
0E00
FFE0
7FC0
3F80
1F00
0E00
0400
ENDCHAR
STARTCHAR char20
ENCODING 32
SWIDTH 350 0
DWIDTH 14 0
BBX 0 0 0 -8
VVECTOR 0 -8
SWIDTH1 0 0
DWIDTH1 0 0
BITMAP 
ENDCHAR
STARTCHAR char21
ENCODING 33
SWIDTH 350 0
DWIDTH 14 0
BBX 4 27 5 0
VVECTOR 7 32
SWIDTH1 0 -1000
DWIDTH1 0 -40
BITMAP 
F0
F0
F0
F0
F0
F0
F0
F0
F0
F0
F0
F0
F0
F0
F0
F0
F0
F0
F0
F0
00
00
00
00
F0
F0
F0
ENDCHAR
STARTCHAR char22
ENCODING 34
SWIDTH 450 0
DWIDTH 18 0
BBX 12 9 3 19
VVECTOR 9 32
SWIDTH1 0 -1000
DWIDTH1 0 -40
BITMAP 
F0F0
F0F0
F0F0
F0F0
F0F0
F0F0
F0F0
F0F0
F0F0
ENDCHAR
STARTCHAR char23
ENCODING 35
SWIDTH 875 0
DWIDTH 35 0
BBX 29 26 3 1
VVECTOR 18 32
SWIDTH1 0 -1000
DWIDTH1 0 -40
BITMAP 
000701C0
000701C0
000E0380
000E0380
001C0700
001C0700
00380E00
00380E00
3FFFFFF8
3FEFEFF8
00701C00
00701C00
00E03800
00E03800
01C07000
01C07000
FFBFBFE0
FFFFFFE0
0380E000
0380E000
0701C000
0701C000
0E038000
0E038000
1C070000
1C070000
ENDCHAR
STARTCHAR char24
ENCODING 36
SWIDTH 600 0
DWIDTH 24 0
BBX 20 35 2 -4
VVECTOR 12 32
SWIDTH1 0 -1000
DWIDTH1 0 -40
BITMAP 
006000
006000
006000
006000
03FC00
0FFF00
3FDFC0
7C67E0
7861E0
F060F0
F060F0
F060F0
F86000
7C6000
3F6000
1FA000
07F000
01FC00
007F00
005FC0
0067E0
0061E0
0060F0
F060F0
F060F0
F060F0
7861E0
7E63E0
3FDFC0
0FFF00
03FC00
006000
006000
006000
006000
ENDCHAR
STARTCHAR char25
ENCODING 37
SWIDTH 875 0
DWIDTH 35 0
BBX 30 28 2 0
VVECTOR 17 32
SWIDTH1 0 -1000
DWIDTH1 0 -40
BITMAP 
0F800000
3FE00000
70700000
E03800E0
E03801C0
E0380380
E0380700
E0380E00
E0381C00
E0383800
70707000
3FE0E000
0F81C000
00038000
00070000
000E07C0
001C1FF0
00383838
0070701C
00E0701C
01C0701C
0380701C
0700701C
0E00701C
1C00701C
00003838
00001FF0
000007C0
ENDCHAR
STARTCHAR char26
ENCODING 38
SWIDTH 700 0
DWIDTH 28 0
BBX 25 27 2 0
VVECTOR 15 32
SWIDTH1 0 -1000
DWIDTH1 0 -40
BITMAP 
03F00000
0FFC0000
1FFE0000
1E1E0000
3C0F0000
3C0F0000
3C0F0000
1E1E0000
0F3C0000
07F80000
03F00000
03E00000
07F00000
1F780000
3C3C0000
781E1C00
F00F1C00
F007B800
F003F800
F001F000
F001E000
F003F000
7807F800
7C0F3C00
3FFE1E00
0FFC0F00
03F00780
ENDCHAR
STARTCHAR char27
ENCODING 39
SWIDTH 250 0
DWIDTH 10 0
BBX 4 9 3 19
VVECTOR 5 32
SWIDTH1 0 -1000
DWIDTH1 0 -40
BITMAP 
F0
F0
F0
F0
F0
F0
F0
F0
F0
ENDCHAR
STARTCHAR char28
ENCODING 40
SWIDTH 350 0
DWIDTH 14 0
BBX 11 36 2 -7
VVECTOR 8 32
SWIDTH1 0 -1000
DWIDTH1 0 -40
BITMAP 
0060
00E0
01C0
0380
0700
0E00
1C00
1C00
3800
3800
7000
7000
7000
E000
E000
E000
E000
E000
E000
E000
E000
E000
E000
7000
7000
7000
3800
3800
1C00
1C00
0E00
0700
0380
01C0
00E0
0060
ENDCHAR
STARTCHAR char29
ENCODING 41
SWIDTH 350 0
DWIDTH 14 0
BBX 11 36 1 -7
VVECTOR 7 32
SWIDTH1 0 -1000
DWIDTH1 0 -40
BITMAP 
C000
E000
7000
3800
1C00
0E00
0700
0700
0380
0380
01C0
01C0
01C0
00E0
00E0
00E0
00E0
00E0
00E0
00E0
00E0
00E0
00E0
01C0
01C0
01C0
0380
0380
0700
0700
0E00
1C00
3800
7000
E000
C000
ENDCHAR
STARTCHAR char2A
ENCODING 42
SWIDTH 600 0
DWIDTH 24 0
BBX 17 12 3 12
VVECTOR 12 32
SWIDTH1 0 -1000
DWIDTH1 0 -40
BITMAP 
380E00
1C1C00
0E3800
077000
03E000
FDDF80
FDDF80
03E000
077000
0E3800
1C1C00
380E00
ENDCHAR
STARTCHAR char2B
ENCODING 43
SWIDTH 875 0
DWIDTH 35 0
BBX 29 24 3 2
VVECTOR 18 32
SWIDTH1 0 -1000
DWIDTH1 0 -40
BITMAP 
00070000
00070000
00070000
00070000
00070000
00070000
00070000
00070000
00070000
00070000
00070000
FFFFFFF8
FFFFFFF8
00070000
00070000
00070000
00070000
00070000
00070000
00070000
00070000
00070000
00070000
00070000
ENDCHAR
STARTCHAR char2C
ENCODING 44
SWIDTH 200 0
DWIDTH 8 0
BBX 7 8 0 -4
VVECTOR 4 32
SWIDTH1 0 -1000
DWIDTH1 0 -40
BITMAP 
1E
1E
3C
3C
78
78
F0
F0
ENDCHAR
STARTCHAR char2D
ENCODING 45
SWIDTH 875 0
DWIDTH 35 0
BBX 29 2 3 13
VVECTOR 18 32
SWIDTH1 0 -1000
DWIDTH1 0 -40
BITMAP 
FFFFFFF8
FFFFFFF8
ENDCHAR
STARTCHAR char2E
ENCODING 46
SWIDTH 200 0
DWIDTH 8 0
BBX 4 3 2 0
VVECTOR 4 32
SWIDTH1 0 -1000
DWIDTH1 0 -40
BITMAP 
F0
F0
F0
ENDCHAR
STARTCHAR char2F
ENCODING 47
SWIDTH 350 0
DWIDTH 14 0
BBX 12 27 1 0
VVECTOR 7 32
SWIDTH1 0 -1000
DWIDTH1 0 -40
BITMAP 
0070
0070
0070
00E0
00E0
00E0
01C0
01C0
0380
0380
0380
0700
0700
0700
0E00
0E00
1C00
1C00
1C00
3800
3800
7000
7000
7000
E000
E000
E000
ENDCHAR
STARTCHAR char30
ENCODING 48
SWIDTH 600 0
DWIDTH 24 0
BBX 20 27 2 0
VVECTOR 12 32
SWIDTH1 0 -1000
DWIDTH1 0 -40
BITMAP 
01F800
07FE00
1FFF80
3F0FC0
7C03E0
7801E0
F000F0
F000F0
F000F0
F000F0
F000F0
F000F0
F000F0
F000F0
F000F0
F000F0
F000F0
F000F0
F000F0
F000F0
F000F0
7801E0
7C03E0
3F0FC0
1FFF80
07FE00
01F800
ENDCHAR
STARTCHAR char31
ENCODING 49
SWIDTH 600 0
DWIDTH 24 0
BBX 11 27 5 0
VVECTOR 11 32
SWIDTH1 0 -1000
DWIDTH1 0 -40
BITMAP 
01E0
01E0
03E0
0FE0
FFE0
FFE0
FEE0
01E0
01E0
01E0
01E0
01E0
01E0
01E0
01E0
01E0
01E0
01E0
01E0
01E0
01E0
01E0
01E0
01E0
01E0
01E0
01E0
ENDCHAR
STARTCHAR char32
ENCODING 50
SWIDTH 600 0
DWIDTH 24 0
BBX 18 27 3 0
VVECTOR 12 32
SWIDTH1 0 -1000
DWIDTH1 0 -40
BITMAP 
03F000
0FFC00
3FFF00
7C1F80
F807C0
F003C0
F003C0
F003C0
0003C0
0007C0
000780
000F80
001F00
003E00
007C00
00F800
01F000
03E000
07C000
0F8000
1F0000
3E0000
7C0000
F80000
F7FFC0
FFFFC0
FFFFC0
ENDCHAR
STARTCHAR char33
ENCODING 51
SWIDTH 600 0
DWIDTH 24 0
BBX 19 27 3 0
VVECTOR 13 32
SWIDTH1 0 -1000
DWIDTH1 0 -40
BITMAP 
03F000
0FFC00
3FFF00
7E1F80
780780
F003C0
F003C0
F003C0
0003C0
000380
000780
000F00
03FE00
03FC00
03FF00
000FC0
0003C0
0001E0
0001E0
F001E0
F001E0
F001E0
7803C0
7E0FC0
3FFF80
0FFE00
03F800
ENDCHAR
STARTCHAR char34
ENCODING 52
SWIDTH 600 0
DWIDTH 24 0
BBX 20 27 2 0
VVECTOR 12 32
SWIDTH1 0 -1000
DWIDTH1 0 -40
BITMAP 
000F80
001F80
001F80
003B80
007780
007780
00F780
01E780
01C780
03C780
078780
070780
0F0780
1E0780
1C0780
3C0780
780780
700780
EFFB70
FFFFF0
FFFB70
000780
000780
000780
000780
000780
000780
ENDCHAR
STARTCHAR char35
ENCODING 53
SWIDTH 600 0
DWIDTH 24 0
BBX 19 27 2 0
VVECTOR 12 32
SWIDTH1 0 -1000
DWIDTH1 0 -40
BITMAP 
7FFF80
7FFF80
7FFF80
780000
780000
780000
780000
780000
780000
780000
79F000
77FC00
7FFF00
7C1F80
7007C0
0003C0
0001E0
0001E0
0001E0
F001E0
F001E0
F003C0
7807C0
7E1F80
3FFF00
0FFC00
02F000
ENDCHAR
STARTCHAR char36
ENCODING 54
SWIDTH 600 0
DWIDTH 24 0
BBX 19 27 3 0
VVECTOR 13 32
SWIDTH1 0 -1000
DWIDTH1 0 -40
BITMAP 
01F000
07FC00
1FFF00
3F1F80
7C0780
7803C0
F003C0
F00000
F00000
F00000
F0F000
F3FC00
EFFF00
FF1F80
FC07C0
F803C0
F001E0
F001E0
F001E0
F001E0
F001E0
7803C0
7C07C0
3F1F80
1FFF00
07FC00
01F000
ENDCHAR
STARTCHAR char37
ENCODING 55
SWIDTH 600 0
DWIDTH 24 0
BBX 19 27 2 0
VVECTOR 12 32
SWIDTH1 0 -1000
DWIDTH1 0 -40
BITMAP 
FFFFE0
FFFFE0
FFFDE0
0003C0
0003C0
000780
000780
000F00
000F00
001E00
001E00
003C00
003C00
007800
007800
007800
00F000
00F000
00F000
01E000
01E000
01E000
01E000
03C000
03C000
03C000
03C000
ENDCHAR
STARTCHAR char38
ENCODING 56
SWIDTH 600 0
DWIDTH 24 0
BBX 20 27 2 0
VVECTOR 12 32
SWIDTH1 0 -1000
DWIDTH1 0 -40
BITMAP 
01F800
07FE00
1FFF80
3F0FC0
7C03E0
7801E0
7801E0
7801E0
7801E0
3C03C0
1F0F80
0FFF00
03FC00
0FFF00
3F0FC0
7C03E0
F801F0
F000F0
F000F0
F000F0
F000F0
F000F0
7801E0
7E07E0
3FFFC0
0FFF00
03FC00
ENDCHAR
STARTCHAR char39
ENCODING 57
SWIDTH 600 0
DWIDTH 24 0
BBX 19 27 2 0
VVECTOR 12 32
SWIDTH1 0 -1000
DWIDTH1 0 -40
BITMAP 
01F000
07FC00
1FFF00
3F1F80
7C07C0
7803C0
F001E0
F001E0
F001E0
F001E0
F001E0
7803E0
7C07E0
3F1FE0
1FFEE0
07F9E0
01E1E0
0001E0
0001E0
0001E0
7801E0
7803C0
3C07C0
3F1F80
1FFF00
07FC00
01F000
ENDCHAR
STARTCHAR char3A
ENCODING 58
SWIDTH 200 0
DWIDTH 8 0
BBX 4 17 2 0
VVECTOR 4 32
SWIDTH1 0 -1000
DWIDTH1 0 -40
BITMAP 
F0
F0
F0
00
00
00
00
00
00
00
00
00
00
00
F0
F0
F0
ENDCHAR
STARTCHAR char3B
ENCODING 59
SWIDTH 200 0
DWIDTH 8 0
BBX 7 21 0 -4
VVECTOR 4 32
SWIDTH1 0 -1000
DWIDTH1 0 -40
BITMAP 
1E
1E
1E
00
00
00
00
00
00
00
00
00
00
1E
1E
3C
3C
78
78
F0
F0
ENDCHAR
STARTCHAR char3C
ENCODING 60
SWIDTH 600 0
DWIDTH 24 0
BBX 15 25 4 0
VVECTOR 12 32
SWIDTH1 0 -1000
DWIDTH1 0 -40
BITMAP 
000E
001C
0038
0070
00E0
01C0
0380
0700
0E00
1C00
3800
7000
E000
7000
3800
1C00
0E00
0700
0380
01C0
00E0
0070
0038
001C
000E
ENDCHAR
STARTCHAR char3D
ENCODING 61
SWIDTH 875 0
DWIDTH 35 0
BBX 29 8 3 10
VVECTOR 18 32
SWIDTH1 0 -1000
DWIDTH1 0 -40
BITMAP 
FFFFFFF8
FFFFFFF8
00000000
00000000
00000000
00000000
FFFFFFF8
FFFFFFF8
ENDCHAR
STARTCHAR char3E
ENCODING 62
SWIDTH 600 0
DWIDTH 24 0
BBX 15 25 5 0
VVECTOR 13 32
SWIDTH1 0 -1000
DWIDTH1 0 -40
BITMAP 
E000
7000
3800
1C00
0E00
0700
0380
01C0
00E0
0070
0038
001C
000E
001C
0038
0070
00E0
01C0
0380
0700
0E00
1C00
3800
7000
E000
ENDCHAR
STARTCHAR char3F
ENCODING 63
SWIDTH 600 0
DWIDTH 24 0
BBX 18 27 3 0
VVECTOR 12 32
SWIDTH1 0 -1000
DWIDTH1 0 -40
BITMAP 
03F000
0FFC00
3FFF00
7E1F80
F807C0
F003C0
F003C0
F003C0
0003C0
0007C0
000F80
001F00
003E00
007C00
00F800
01F000
01E000
01E000
01E000
01E000
000000
000000
000000
000000
01E000
01E000
01E000
ENDCHAR
STARTCHAR char40
ENCODING 64
SWIDTH 875 0
DWIDTH 35 0
BBX 31 26 2 1
VVECTOR 18 32
SWIDTH1 0 -1000
DWIDTH1 0 -40
BITMAP 
00BFFA00
03FFFF80
0F8003E0
1E0000F0
3C000078
7800003C
7000001C
F00FFC1E
603FEC0C
E0781C0E
E0701C0E
E0701C0E
E0701C0E
E0701C0E
E0703C0E
E0707C0E
E078EE1E
603FCFFC
F01F83F0
70000000
78000000
3C000000
1E000000
0F800000
03FFF800
00BFF800
ENDCHAR
STARTCHAR char41
ENCODING 65
SWIDTH 675 0
DWIDTH 27 0
BBX 25 27 1 0
VVECTOR 14 32
SWIDTH1 0 -1000
DWIDTH1 0 -40
BITMAP 
003E0000
003E0000
007F0000
00770000
00F78000
00E38000
01E3C000
01E3C000
03C1E000
03C1E000
03C1E000
0780F000
0780F000
0F007800
0F007800
0F007800
1EFFBC00
1FFFFC00
3FFFFE00
3C001E00
3C001E00
78000F00
78000F00
78000F00
F0000780
F0000780
F0000780
ENDCHAR
STARTCHAR char42
ENCODING 66
SWIDTH 700 0
DWIDTH 28 0
BBX 22 27 4 0
VVECTOR 15 32
SWIDTH1 0 -1000
DWIDTH1 0 -40
BITMAP 
FFFE00
FFFF80
EFFFE0
F001F0
F000F0
F00078
F00078
F00078
F00078
F00070
F000F0
F001E0
EFFFC0
FFFF80
EFFFE0
F000F0
F00078
F00038
F0003C
F0003C
F0003C
F0003C
F00078
F000F8
EFFFF0
FFFFC0
FFFF00
ENDCHAR
STARTCHAR char43
ENCODING 67
SWIDTH 775 0
DWIDTH 31 0
BBX 27 27 2 0
VVECTOR 16 32
SWIDTH1 0 -1000
DWIDTH1 0 -40
BITMAP 
005FA000
01FFF800
07FFFE00
0FC03F00
1F000F80
3E0007C0
3C0003C0
780001E0
780001E0
F0000000
F0000000
F0000000
F0000000
F0000000
F0000000
F0000000
F0000000
F0000000
780001E0
780001E0
3C0003C0
3E0007C0
1F000F80
0FC03F00
07FFFE00
01FFF800
005FA000
ENDCHAR
STARTCHAR char44
ENCODING 68
SWIDTH 775 0
DWIDTH 31 0
BBX 25 27 4 0
VVECTOR 17 32
SWIDTH1 0 -1000
DWIDTH1 0 -40
BITMAP 
FFFE0000
FFFFC000
EFFFF000
F001FC00
F0007E00
F0001E00
F0000F00
F0000F00
F0000780
F0000780
F0000780
F0000780
F0000780
F0000780
F0000780
F0000780
F0000780
F0000780
F0000780
F0000F00
F0000F00
F0001E00
F0007E00
F001FC00
EFFFF000
FFFFC000
FFFE0000
ENDCHAR
STARTCHAR char45
ENCODING 69
SWIDTH 675 0
DWIDTH 27 0
BBX 21 27 4 0
VVECTOR 15 32
SWIDTH1 0 -1000
DWIDTH1 0 -40
BITMAP 
FFFFF8
FFFFF8
EFFFF8
F00000
F00000
F00000
F00000
F00000
F00000
F00000
F00000
EFFFE0
FFFFE0
EFFFE0
F00000
F00000
F00000
F00000
F00000
F00000
F00000
F00000
F00000
F00000
EFFFF8
FFFFF8
FFFFF8
ENDCHAR
STARTCHAR char46
ENCODING 70
SWIDTH 650 0
DWIDTH 26 0
BBX 20 27 4 0
VVECTOR 14 32
SWIDTH1 0 -1000
DWIDTH1 0 -40
BITMAP 
FFFFF0
FFFFF0
EFFFF0
F00000
F00000
F00000
F00000
F00000
F00000
F00000
F00000
EFFFE0
FFFFE0
EFFFE0
F00000
F00000
F00000
F00000
F00000
F00000
F00000
F00000
F00000
F00000
F00000
F00000
F00000
ENDCHAR
STARTCHAR char47
ENCODING 71
SWIDTH 775 0
DWIDTH 31 0
BBX 27 27 2 0
VVECTOR 16 32
SWIDTH1 0 -1000
DWIDTH1 0 -40
BITMAP 
005FA000
01FFF800
07FFFE00
0FC03F00
1F000F80
3E0007C0
3C0003C0
780001E0
780001E0
F0000000
F0000000
F0000000
F0000000
F0000000
F001FFE0
F001FFE0
F001FEE0
F00001E0
780001E0
780001E0
3C0003E0
3E0007E0
1F000EE0
0FC03DE0
07FFF9E0
01FFF1E0
005F41E0
ENDCHAR
STARTCHAR char48
ENCODING 72
SWIDTH 775 0
DWIDTH 31 0
BBX 23 27 4 0
VVECTOR 16 32
SWIDTH1 0 -1000
DWIDTH1 0 -40
BITMAP 
F0001E
F0001E
F0001E
F0001E
F0001E
F0001E
F0001E
F0001E
F0001E
F0001E
F0001E
EFFFEE
FFFFFE
EFFFEE
F0001E
F0001E
F0001E
F0001E
F0001E
F0001E
F0001E
F0001E
F0001E
F0001E
F0001E
F0001E
F0001E
ENDCHAR
STARTCHAR char49
ENCODING 73
SWIDTH 300 0
DWIDTH 12 0
BBX 4 27 4 0
VVECTOR 6 32
SWIDTH1 0 -1000
DWIDTH1 0 -40
BITMAP 
F0
F0
F0
F0
F0
F0
F0
F0
F0
F0
F0
F0
F0
F0
F0
F0
F0
F0
F0
F0
F0
F0
F0
F0
F0
F0
F0
ENDCHAR
STARTCHAR char4A
ENCODING 74
SWIDTH 550 0
DWIDTH 22 0
BBX 16 27 2 0
VVECTOR 10 32
SWIDTH1 0 -1000
DWIDTH1 0 -40
BITMAP 
000F
000F
000F
000F
000F
000F
000F
000F
000F
000F
000F
000F
000F
000F
000F
000F
000F
000F
000F
000F
000F
F00F
F01E
F83E
7FFC
3FF8
0FE0
ENDCHAR
STARTCHAR char4B
ENCODING 75
SWIDTH 700 0
DWIDTH 28 0
BBX 23 27 4 0
VVECTOR 16 32
SWIDTH1 0 -1000
DWIDTH1 0 -40
BITMAP 
F0003C
F00078
F000F0
F001E0
F003C0
F00780
F00F00
F01E00
F03C00
F07800
F0F000
F1E000
F3C000
F7C000
EFE000
FEF000
FC7800
F83C00
F01E00
F00F00
F00780
F003C0
F001E0
F000F0
F00078
F0003C
F0001E
ENDCHAR
STARTCHAR char4C
ENCODING 76
SWIDTH 625 0
DWIDTH 25 0
BBX 19 27 4 0
VVECTOR 14 32
SWIDTH1 0 -1000
DWIDTH1 0 -40
BITMAP 
F00000
F00000
F00000
F00000
F00000
F00000
F00000
F00000
F00000
F00000
F00000
F00000
F00000
F00000
F00000
F00000
F00000
F00000
F00000
F00000
F00000
F00000
F00000
F00000
EFFFE0
FFFFE0
FFFFE0
ENDCHAR
STARTCHAR char4D
ENCODING 77
SWIDTH 925 0
DWIDTH 37 0
BBX 29 27 4 0
VVECTOR 19 32
SWIDTH1 0 -1000
DWIDTH1 0 -40
BITMAP 
F0000078
F0000078
F80000F8
F80000F8
FC0001F8
FC0001F8
FE0003F8
EE0003B8
EF0007B8
F7000778
F7800F78
F3800E78
F3C01E78
F1C01C78
F1E03C78
F0E03878
F0F07878
F0707078
F078F078
F038E078
F03DE078
F01DC078
F01FC078
F00F8078
F00F8078
F0070078
F0070078
ENDCHAR
STARTCHAR char4E
ENCODING 78
SWIDTH 800 0
DWIDTH 32 0
BBX 24 27 4 0
VVECTOR 16 32
SWIDTH1 0 -1000
DWIDTH1 0 -40
BITMAP 
F0000F
F8000F
FC000F
FC000F
FE000F
EF000F
EF800F
F7800F
F3C00F
F1E00F
F0F00F
F0780F
F0780F
F03C0F
F01E0F
F00F0F
F0078F
F003CF
F003CF
F001EF
F000F7
F00077
F0007F
F0003F
F0001F
F0000F
F00007
ENDCHAR
STARTCHAR char4F
ENCODING 79
SWIDTH 800 0
DWIDTH 32 0
BBX 28 27 2 0
VVECTOR 16 32
SWIDTH1 0 -1000
DWIDTH1 0 -40
BITMAP 
005FA000
01FFF800
07FFFE00
0FC03F00
1F000F80
3E0007C0
3C0003C0
780001E0
780001E0
F00000F0
F00000F0
F00000F0
F00000F0
F00000F0
F00000F0
F00000F0
F00000F0
F00000F0
780001E0
780001E0
3C0003C0
3E0007C0
1F000F80
0FC03F00
07FFFE00
01FFF800
005FA000
ENDCHAR
STARTCHAR char50
ENCODING 80
SWIDTH 675 0
DWIDTH 27 0
BBX 21 27 4 0
VVECTOR 15 32
SWIDTH1 0 -1000
DWIDTH1 0 -40
BITMAP 
FFFE00
FFFF80
EFFFE0
F003F0
F000F8
F00078
F00078
F00078
F00078
F00078
F00078
F00078
F000F8
F003F0
EFFFE0
FFFF80
EFFE00
F00000
F00000
F00000
F00000
F00000
F00000
F00000
F00000
F00000
F00000
ENDCHAR
STARTCHAR char51
ENCODING 81
SWIDTH 800 0
DWIDTH 32 0
BBX 28 30 2 -3
VVECTOR 16 32
SWIDTH1 0 -1000
DWIDTH1 0 -40
BITMAP 
005FA000
01FFF800
07FFFE00
0FC03F00
1F000F80
3E0007C0
3C0003C0
780001E0
780001E0
F00000F0
F00000F0
F00000F0
F00000F0
F00000F0
F00000F0
F00000F0
F00000F0
F00000F0
780001E0
780601E0
3C0F03C0
3E0787C0
1F03CF80
0FC1EF00
07FEFE00
01FFF800
005FBC00
00001E00
00000F00
00000600
ENDCHAR
STARTCHAR char52
ENCODING 82
SWIDTH 700 0
DWIDTH 28 0
BBX 22 27 4 0
VVECTOR 15 32
SWIDTH1 0 -1000
DWIDTH1 0 -40
BITMAP 
FFFE00
FFFF80
EFFFE0
F003F0
F000F8
F00078
F00078
F00078
F00078
F00078
F00078
F000F8
F003F0
EFFFE0
FFFF80
EFFFE0
F001F0
F000F8
F00078
F00078
F00078
F00078
F00078
F00078
F00078
F00078
F0003C
ENDCHAR
STARTCHAR char53
ENCODING 83
SWIDTH 650 0
DWIDTH 26 0
BBX 22 27 2 0
VVECTOR 13 32
SWIDTH1 0 -1000
DWIDTH1 0 -40
BITMAP 
017D00
07FFC0
1FFFF0
3F01F8
3C0078
78003C
78003C
78003C
3C0000
3F0000
1FC000
07F000
01FC00
007F00
001FC0
0007F0
0001F8
00007C
00003C
F0003C
F0003C
F0003C
780078
7E01F8
3FFFF0
0FFFC0
02FD00
ENDCHAR
STARTCHAR char54
ENCODING 84
SWIDTH 650 0
DWIDTH 26 0
BBX 22 27 2 0
VVECTOR 13 32
SWIDTH1 0 -1000
DWIDTH1 0 -40
BITMAP 
FFFFFC
FFFFFC
FFB7FC
007800
007800
007800
007800
007800
007800
007800
007800
007800
007800
007800
007800
007800
007800
007800
007800
007800
007800
007800
007800
007800
007800
007800
007800
ENDCHAR
STARTCHAR char55
ENCODING 85
SWIDTH 750 0
DWIDTH 30 0
BBX 22 27 4 0
VVECTOR 15 32
SWIDTH1 0 -1000
DWIDTH1 0 -40
BITMAP 
F0003C
F0003C
F0003C
F0003C
F0003C
F0003C
F0003C
F0003C
F0003C
F0003C
F0003C
F0003C
F0003C
F0003C
F0003C
F0003C
F0003C
F0003C
F0003C
F0003C
F0003C
780078
7C00F8
3F03F0
1FFFE0
07FF80
01FE00
ENDCHAR
STARTCHAR char56
ENCODING 86
SWIDTH 725 0
DWIDTH 29 0
BBX 27 27 1 0
VVECTOR 15 32
SWIDTH1 0 -1000
DWIDTH1 0 -40
BITMAP 
F00001E0
F00001E0
780003C0
780003C0
3C000780
3C000780
1E000F00
1E000F00
0F001E00
0F001E00
0F001E00
07803C00
07803C00
03C07800
03C07800
01E0F000
01E0F000
00F1E000
00F1E000
0071C000
007BC000
003B8000
003B8000
001F0000
001F0000
000E0000
000E0000
ENDCHAR
STARTCHAR char57
ENCODING 87
SWIDTH 1025 0
DWIDTH 41 0
BBX 39 27 1 0
VVECTOR 21 32
SWIDTH1 0 -1000
DWIDTH1 0 -40
BITMAP 
F00000001E
F00038001E
F00038001E
78007C003C
78007C003C
78007C003C
3C00FE0078
3C00EE0078
1E00EE00F0
1E01EF00F0
1E01C700F0
0F01C701E0
0F03C781E0
0F038381E0
07838383C0
078783C3C0
03C701C780
03C701C780
03CF01E780
01EE00EF00
01EE00EF00
01EE00EF00
00FC007E00
00FC007E00
00FC007E00
0078003C00
0078003C00
ENDCHAR
STARTCHAR char58
ENCODING 88
SWIDTH 725 0
DWIDTH 29 0
BBX 27 27 1 0
VVECTOR 15 32
SWIDTH1 0 -1000
DWIDTH1 0 -40
BITMAP 
F80003E0
7C0007C0
3E000F80
1F001F00
0F803E00
07803C00
07C07C00
03E0F800
01F1F000
00FBE000
007FC000
003F8000
001F0000
001F0000
003F8000
007FC000
00FBE000
01F1F000
01E0F000
03C07800
07803C00
0F803E00
1F001F00
1E000F00
3C000780
7C0007C0
F80003E0
ENDCHAR
STARTCHAR char59
ENCODING 89
SWIDTH 700 0
DWIDTH 28 0
BBX 26 27 1 0
VVECTOR 14 32
SWIDTH1 0 -1000
DWIDTH1 0 -40
BITMAP 
F00003C0
78000780
3C000F00
1E001E00
1E001E00
0F003C00
07807800
03C0F000
03C0F000
01E1E000
00F3C000
007F8000
007F8000
003F0000
001E0000
001E0000
001E0000
001E0000
001E0000
001E0000
001E0000
001E0000
001E0000
001E0000
001E0000
001E0000
001E0000
ENDCHAR
STARTCHAR char5A
ENCODING 90
SWIDTH 600 0
DWIDTH 24 0
BBX 20 27 2 0
VVECTOR 12 32
SWIDTH1 0 -1000
DWIDTH1 0 -40
BITMAP 
FFFFF0
FFFFF0
FFFEF0
0001E0
0003C0
0003C0
000780
000F00
000F00
001E00
003C00
007800
007800
00F000
01E000
01E000
03C000
078000
0F0000
0F0000
1E0000
3C0000
3C0000
780000
F7FFF0
FFFFF0
FFFFF0
ENDCHAR
STARTCHAR char5B
ENCODING 91
SWIDTH 350 0
DWIDTH 14 0
BBX 9 36 3 -7
VVECTOR 8 32
SWIDTH1 0 -1000
DWIDTH1 0 -40
BITMAP 
FF80
DF80
E000
E000
E000
E000
E000
E000
E000
E000
E000
E000
E000
E000
E000
E000
E000
E000
E000
E000
E000
E000
E000
E000
E000
E000
E000
E000
E000
E000
E000
E000
E000
E000
DF80
FF80
ENDCHAR
STARTCHAR char5C
ENCODING 92
SWIDTH 350 0
DWIDTH 14 0
BBX 12 27 1 0
VVECTOR 7 32
SWIDTH1 0 -1000
DWIDTH1 0 -40
BITMAP 
E000
E000
E000
7000
7000
7000
3800
3800
1C00
1C00
1C00
0E00
0E00
0700
0700
0700
0380
0380
0380
01C0
01C0
00E0
00E0
00E0
0070
0070
0070
ENDCHAR
STARTCHAR char5D
ENCODING 93
SWIDTH 350 0
DWIDTH 14 0
BBX 9 36 2 -7
VVECTOR 7 32
SWIDTH1 0 -1000
DWIDTH1 0 -40
BITMAP 
FF80
FD80
0380
0380
0380
0380
0380
0380
0380
0380
0380
0380
0380
0380
0380
0380
0380
0380
0380
0380
0380
0380
0380
0380
0380
0380
0380
0380
0380
0380
0380
0380
0380
0380
FD80
FF80
ENDCHAR
STARTCHAR char5E
ENCODING 94
SWIDTH 600 0
DWIDTH 24 0
BBX 9 4 7 28
VVECTOR 12 32
SWIDTH1 0 -1000
DWIDTH1 0 -40
BITMAP 
1C00
3E00
7700
E380
ENDCHAR
STARTCHAR char5F
ENCODING 95
SWIDTH 875 0
DWIDTH 35 0
BBX 35 2 0 -8
VVECTOR 18 32
SWIDTH1 0 -1000
DWIDTH1 0 -40
BITMAP 
FFFFFFFFE0
FFFFFFFFE0
ENDCHAR
STARTCHAR char60
ENCODING 96
SWIDTH 600 0
DWIDTH 24 0
BBX 7 4 8 28
VVECTOR 12 32
SWIDTH1 0 -1000
DWIDTH1 0 -40
BITMAP 
F0
78
3C
1E
ENDCHAR
STARTCHAR char61
ENCODING 97
SWIDTH 550 0
DWIDTH 22 0
BBX 17 20 2 0
VVECTOR 11 32
SWIDTH1 0 -1000
DWIDTH1 0 -40
BITMAP 
07F800
1FFE00
3FFF00
7C0F80
780780
780780
000780
000F80
00FF80
07FB80
3FC780
7E0780
F80780
F00780
F00780
F00F80
F83F80
7FFB80
3FE780
0F8780
ENDCHAR
STARTCHAR char62
ENCODING 98
SWIDTH 625 0
DWIDTH 25 0
BBX 20 27 3 0
VVECTOR 13 32
SWIDTH1 0 -1000
DWIDTH1 0 -40
BITMAP 
F00000
F00000
F00000
F00000
F00000
F00000
F00000
F0F800
F3FE00
EFFF80
FF0FC0
FC03E0
F801E0
F000F0
F000F0
F000F0
F000F0
F000F0
F000F0
F000F0
F000F0
F801E0
FC03E0
FF0FC0
EFFF80
F3FE00
F0F800
ENDCHAR
STARTCHAR char63
ENCODING 99
SWIDTH 600 0
DWIDTH 24 0
BBX 20 20 2 0
VVECTOR 12 32
SWIDTH1 0 -1000
DWIDTH1 0 -40
BITMAP 
01F800
07FE00
1FFF80
3F0FC0
7C03E0
7801E0
F000F0
F000F0
F00000
F00000
F00000
F00000
F000F0
F000F0
7801E0
7C03E0
3F0FC0
1FFF80
07FE00
01F800
ENDCHAR
STARTCHAR char64
ENCODING 100
SWIDTH 625 0
DWIDTH 25 0
BBX 20 27 2 0
VVECTOR 12 32
SWIDTH1 0 -1000
DWIDTH1 0 -40
BITMAP 
0000F0
0000F0
0000F0
0000F0
0000F0
0000F0
0000F0
01F0F0
07FCF0
1FFF70
3F0FF0
7C03F0
7801F0
F000F0
F000F0
F000F0
F000F0
F000F0
F000F0
F000F0
F000F0
7801F0
7C03F0
3F0FF0
1FFF70
07FCF0
01F0F0
ENDCHAR
STARTCHAR char65
ENCODING 101
SWIDTH 600 0
DWIDTH 24 0
BBX 20 20 2 0
VVECTOR 12 32
SWIDTH1 0 -1000
DWIDTH1 0 -40
BITMAP 
01F800
07FE00
1FFF80
3F0FC0
7C03E0
7801E0
F000F0
F000F0
EFFF70
FFFFF0
EFFFF0
F00000
F00000
F00000
7801E0
7C03E0
3F0FC0
1FFF80
07FE00
01F800
ENDCHAR
STARTCHAR char66
ENCODING 102
SWIDTH 325 0
DWIDTH 13 0
BBX 10 27 1 0
VVECTOR 6 32
SWIDTH1 0 -1000
DWIDTH1 0 -40
BITMAP 
03C0
0FC0
0FC0
1E00
1E00
1E00
1E00
1E00
1E00
EDC0
FFC0
EDC0
1E00
1E00
1E00
1E00
1E00
1E00
1E00
1E00
1E00
1E00
1E00
1E00
1E00
1E00
1E00
ENDCHAR
STARTCHAR char67
ENCODING 103
SWIDTH 625 0
DWIDTH 25 0
BBX 20 28 2 -8
VVECTOR 12 32
SWIDTH1 0 -1000
DWIDTH1 0 -40
BITMAP 
01F0F0
07FCF0
1FFF70
3F0FF0
7C03F0
7801F0
F000F0
F000F0
F000F0
F000F0
F000F0
F000F0
F000F0
F000F0
7801F0
7C03F0
3F0FF0
1FFF70
07FCF0
01F0F0
0000F0
0000F0
7801E0
7C03E0
3F0FC0
1FFF80
07FE00
01F800
ENDCHAR
STARTCHAR char68
ENCODING 104
SWIDTH 625 0
DWIDTH 25 0
BBX 19 27 3 0
VVECTOR 13 32
SWIDTH1 0 -1000
DWIDTH1 0 -40
BITMAP 
F00000
F00000
F00000
F00000
F00000
F00000
F00000
F0F800
F3FE00
EFFF80
FE0FC0
F803C0
F001E0
F001E0
F001E0
F001E0
F001E0
F001E0
F001E0
F001E0
F001E0
F001E0
F001E0
F001E0
F001E0
F001E0
F001E0
ENDCHAR
STARTCHAR char69
ENCODING 105
SWIDTH 300 0
DWIDTH 12 0
BBX 4 27 4 0
VVECTOR 6 32
SWIDTH1 0 -1000
DWIDTH1 0 -40
BITMAP 
F0
F0
F0
00
00
00
00
F0
F0
F0
F0
F0
F0
F0
F0
F0
F0
F0
F0
F0
F0
F0
F0
F0
F0
F0
F0
ENDCHAR
STARTCHAR char6A
ENCODING 106
SWIDTH 250 0
DWIDTH 10 0
BBX 7 35 0 -8
VVECTOR 4 32
SWIDTH1 0 -1000
DWIDTH1 0 -40
BITMAP 
1E
1E
1E
00
00
00
00
1E
1E
1E
1E
1E
1E
1E
1E
1E
1E
1E
1E
1E
1E
1E
1E
1E
1E
1E
1E
1E
1E
1E
1E
1E
FC
FC
F0
ENDCHAR
STARTCHAR char6B
ENCODING 107
SWIDTH 575 0
DWIDTH 23 0
BBX 19 27 3 0
VVECTOR 13 32
SWIDTH1 0 -1000
DWIDTH1 0 -40
BITMAP 
F00000
F00000
F00000
F00000
F00000
F00000
F00000
F007C0
F00F80
F01F00
F03E00
F07C00
F0F800
F1F000
F3E000
F7C000
EF8000
FFC000
FBE000
F1F000
F0F800
F07C00
F03E00
F01F00
F00F80
F007C0
F003E0
ENDCHAR
STARTCHAR char6C
ENCODING 108
SWIDTH 300 0
DWIDTH 12 0
BBX 4 27 4 0
VVECTOR 6 32
SWIDTH1 0 -1000
DWIDTH1 0 -40
BITMAP 
F0
F0
F0
F0
F0
F0
F0
F0
F0
F0
F0
F0
F0
F0
F0
F0
F0
F0
F0
F0
F0
F0
F0
F0
F0
F0
F0
ENDCHAR
STARTCHAR char6D
ENCODING 109
SWIDTH 950 0
DWIDTH 38 0
BBX 32 20 3 0
VVECTOR 19 32
SWIDTH1 0 -1000
DWIDTH1 0 -40
BITMAP 
F0F803E0
F3FE0FF8
EFFF3FFC
FE0FF83E
F807E01E
F803E00F
F003C00F
F003C00F
F003C00F
F003C00F
F003C00F
F003C00F
F003C00F
F003C00F
F003C00F
F003C00F
F003C00F
F003C00F
F003C00F
F003C00F
ENDCHAR
STARTCHAR char6E
ENCODING 110
SWIDTH 625 0
DWIDTH 25 0
BBX 19 20 3 0
VVECTOR 13 32
SWIDTH1 0 -1000
DWIDTH1 0 -40
BITMAP 
F0F800
F3FE00
EFFF80
FE0FC0
F803C0
F803E0
F001E0
F001E0
F001E0
F001E0
F001E0
F001E0
F001E0
F001E0
F001E0
F001E0
F001E0
F001E0
F001E0
F001E0
ENDCHAR
STARTCHAR char6F
ENCODING 111
SWIDTH 625 0
DWIDTH 25 0
BBX 21 20 2 0
VVECTOR 13 32
SWIDTH1 0 -1000
DWIDTH1 0 -40
BITMAP 
01FC00
07FF00
1FFFC0
3F07E0
7C01F0
7800F0
F00078
F00078
F00078
F00078
F00078
F00078
F00078
F00078
7800F0
7C01F0
3F07E0
1FFFC0
07FF00
01FC00
ENDCHAR
STARTCHAR char70
ENCODING 112
SWIDTH 625 0
DWIDTH 25 0
BBX 20 28 3 -8
VVECTOR 13 32
SWIDTH1 0 -1000
DWIDTH1 0 -40
BITMAP 
F07C00
F1FF00
F7FFC0
EF0FE0
FC03E0
F801F0
F000F0
F000F0
F000F0
F000F0
F000F0
F000F0
F000F0
F000F0
F801F0
FC03E0
FF0FE0
EFFFC0
F3FF00
F0FC00
F00000
F00000
F00000
F00000
F00000
F00000
F00000
F00000
ENDCHAR
STARTCHAR char71
ENCODING 113
SWIDTH 625 0
DWIDTH 25 0
BBX 20 28 2 -8
VVECTOR 12 32
SWIDTH1 0 -1000
DWIDTH1 0 -40
BITMAP 
01F0F0
07FCF0
1FFF70
3F0FF0
7C03F0
7801F0
F000F0
F000F0
F000F0
F000F0
F000F0
F000F0
F000F0
F000F0
7801F0
7C03F0
3F0FF0
1FFF70
07FCF0
01F0F0
0000F0
0000F0
0000F0
0000F0
0000F0
0000F0
0000F0
0000F0
ENDCHAR
STARTCHAR char72
ENCODING 114
SWIDTH 375 0
DWIDTH 15 0
BBX 10 20 3 0
VVECTOR 8 32
SWIDTH1 0 -1000
DWIDTH1 0 -40
BITMAP 
F1C0
F7C0
EFC0
FF00
FC00
F800
F800
F000
F000
F000
F000
F000
F000
F000
F000
F000
F000
F000
F000
F000
ENDCHAR
STARTCHAR char73
ENCODING 115
SWIDTH 500 0
DWIDTH 20 0
BBX 16 20 2 0
VVECTOR 10 32
SWIDTH1 0 -1000
DWIDTH1 0 -40
BITMAP 
07E0
1FF8
7FFE
F81F
F00F
F00F
F800
7E00
3F80
0FE0
03F8
00FE
003F
000F
F00F
F00F
F81F
7FFE
1FF8
07E0
ENDCHAR
STARTCHAR char74
ENCODING 116
SWIDTH 325 0
DWIDTH 13 0
BBX 10 26 1 0
VVECTOR 6 32
SWIDTH1 0 -1000
DWIDTH1 0 -40
BITMAP 
1E00
1E00
1E00
1E00
1E00
1E00
EDC0
FFC0
EDC0
1E00
1E00
1E00
1E00
1E00
1E00
1E00
1E00
1E00
1E00
1E00
1E00
1E00
1E00
0FC0
0FC0
03C0
ENDCHAR
STARTCHAR char75
ENCODING 117
SWIDTH 625 0
DWIDTH 25 0
BBX 19 20 3 0
VVECTOR 13 32
SWIDTH1 0 -1000
DWIDTH1 0 -40
BITMAP 
F001E0
F001E0
F001E0
F001E0
F001E0
F001E0
F001E0
F001E0
F001E0
F001E0
F001E0
F001E0
F001E0
F001E0
F803E0
7803E0
7E0FE0
3FFEE0
0FF9E0
03E1E0
ENDCHAR
STARTCHAR char76
ENCODING 118
SWIDTH 575 0
DWIDTH 23 0
BBX 21 20 1 0
VVECTOR 12 32
SWIDTH1 0 -1000
DWIDTH1 0 -40
BITMAP 
F00078
F00078
7800F0
7800F0
3C01E0
3C01E0
1E03C0
1E03C0
0F0780
0F0780
078F00
078F00
038E00
03DE00
01DC00
01DC00
00F800
00F800
007000
007000
ENDCHAR
STARTCHAR char77
ENCODING 119
SWIDTH 875 0
DWIDTH 35 0
BBX 33 20 1 0
VVECTOR 18 32
SWIDTH1 0 -1000
DWIDTH1 0 -40
BITMAP 
F000000780
F001C00780
F001C00780
7803E00F00
7803E00F00
3C07701E00
3C07701E00
3C0F781E00
1E0E383C00
1E0E383C00
0E1E3C7800
0F1C1C7800
071C1C7000
07BC1EF000
03B80EE000
03B80EE000
01F80FC000
01F007C000
00F0078000
00F0078000
ENDCHAR
STARTCHAR char78
ENCODING 120
SWIDTH 575 0
DWIDTH 23 0
BBX 19 20 2 0
VVECTOR 12 32
SWIDTH1 0 -1000
DWIDTH1 0 -40
BITMAP 
F001E0
7803C0
3C0780
3C0780
1E0F00
0F1E00
0F1E00
07BC00
03F800
01F000
03F800
03F800
07BC00
0F1E00
0F1E00
1E0F00
3C0780
3C0780
7803C0
F001E0
ENDCHAR
STARTCHAR char79
ENCODING 121
SWIDTH 600 0
DWIDTH 24 0
BBX 22 28 1 -8
VVECTOR 12 32
SWIDTH1 0 -1000
DWIDTH1 0 -40
BITMAP 
F0003C
F0003C
78003C
780078
3C0078
3C00F0
1E00F0
1E00F0
0F01E0
0F01E0
0781E0
0783C0
03C3C0
03C380
01E780
01E700
00F700
00F600
007E00
007C00
003C00
003800
003800
007800
00F000
3FF000
3FE000
3F8000
ENDCHAR
STARTCHAR char7A
ENCODING 122
SWIDTH 525 0
DWIDTH 21 0
BBX 17 20 2 0
VVECTOR 11 32
SWIDTH1 0 -1000
DWIDTH1 0 -40
BITMAP 
7FFF80
7FFF80
7FF780
000F00
001E00
003C00
007800
00F000
00F000
01E000
03C000
078000
0F0000
0F0000
1E0000
3C0000
780000
F7FF80
FFFF80
FFFF80
ENDCHAR
STARTCHAR char7B
ENCODING 123
SWIDTH 350 0
DWIDTH 14 0
BBX 10 36 2 -7
VVECTOR 7 32
SWIDTH1 0 -1000
DWIDTH1 0 -40
BITMAP 
03C0
0FC0
0E00
1C00
1C00
1C00
1C00
1C00
1C00
1C00
1C00
1C00
1C00
1C00
1C00
3800
F000
F000
3800
1C00
1C00
1C00
1C00
1C00
1C00
1C00
1C00
1C00
1C00
1C00
1C00
1C00
1C00
0E00
0FC0
03C0
ENDCHAR
STARTCHAR char7C
ENCODING 124
SWIDTH 200 0
DWIDTH 8 0
BBX 3 35 2 -6
VVECTOR 4 32
SWIDTH1 0 -1000
DWIDTH1 0 -40
BITMAP 
E0
E0
E0
E0
E0
E0
E0
E0
E0
E0
E0
E0
E0
E0
E0
E0
E0
E0
E0
E0
E0
E0
E0
E0
E0
E0
E0
E0
E0
E0
E0
E0
E0
E0
E0
ENDCHAR
STARTCHAR char7D
ENCODING 125
SWIDTH 350 0
DWIDTH 14 0
BBX 10 36 2 -7
VVECTOR 7 32
SWIDTH1 0 -1000
DWIDTH1 0 -40
BITMAP 
F000
FC00
1C00
0E00
0E00
0E00
0E00
0E00
0E00
0E00
0E00
0E00
0E00
0E00
0E00
0700
03C0
03C0
0700
0E00
0E00
0E00
0E00
0E00
0E00
0E00
0E00
0E00
0E00
0E00
0E00
0E00
0E00
1C00
FC00
F000
ENDCHAR
STARTCHAR char7E
ENCODING 126
SWIDTH 600 0
DWIDTH 24 0
BBX 15 4 4 28
VVECTOR 12 32
SWIDTH1 0 -1000
DWIDTH1 0 -40
BITMAP 
1E06
7F8E
E3FC
C0F0
ENDCHAR
STARTCHAR char80
ENCODING 128
SWIDTH 675 0
DWIDTH 27 0
BBX 25 32 1 0
VVECTOR 14 32
SWIDTH1 0 -1000
DWIDTH1 0 -40
BITMAP 
0780F000
0780F000
0780F000
00000000
00000000
00000000
003E0000
003E0000
007F0000
00770000
00F78000
00E38000
01E3C000
01C1C000
03C1E000
03C1E000
0780F000
0780F000
0F007800
0F007800
0F007800
1EFFBC00
1FFFFC00
3FFFFE00
3C001E00
3C001E00
78000F00
78000F00
78000F00
F0000780
F0000780
F0000780
ENDCHAR
STARTCHAR char81
ENCODING 129
SWIDTH 675 0
DWIDTH 27 0
BBX 25 32 1 0
VVECTOR 14 32
SWIDTH1 0 -1000
DWIDTH1 0 -40
BITMAP 
001C0000
00630000
00C18000
00C18000
00C18000
00630000
003E0000
003E0000
007F0000
00770000
00F78000
00E38000
01E3C000
01C1C000
03C1E000
03C1E000
0780F000
0780F000
0F007800
0F007800
0F007800
1EFFBC00
1FFFFC00
3FFFFE00
3C001E00
3C001E00
78000F00
78000F00
78000F00
F0000780
F0000780
F0000780
ENDCHAR
STARTCHAR char82
ENCODING 130
SWIDTH 775 0
DWIDTH 31 0
BBX 27 35 2 -8
VVECTOR 16 32
SWIDTH1 0 -1000
DWIDTH1 0 -40
BITMAP 
007FE000
01FFF800
07FFFE00
0FC03F00
1F000F80
3E0007C0
3C0003C0
780001E0
780001E0
F0000000
F0000000
F0000000
F0000000
F0000000
F0000000
F0000000
F0000000
F0000000
780001E0
780001E0
3C0003C0
3E0007C0
1F000F80
0FC03F00
07FFFE00
01FFF800
007FE000
00000000
00000000
000F8000
000F8000
00018000
00018000
00018000
000E0000
ENDCHAR
STARTCHAR char83
ENCODING 131
SWIDTH 700 0
DWIDTH 28 0
BBX 22 32 4 0
VVECTOR 15 32
SWIDTH1 0 -1000
DWIDTH1 0 -40
BITMAP 
000E00
001C00
003800
000000
000000
FFFFFC
FFFFFC
EFFFFC
F00000
F00000
F00000
F00000
F00000
F00000
F00000
F00000
EFFFF0
FFFFF0
EFFFF0
F00000
F00000
F00000
F00000
F00000
F00000
F00000
F00000
F00000
F00000
EFFFFC
FFFFFC
FFFFFC
ENDCHAR
STARTCHAR char84
ENCODING 132
SWIDTH 825 0
DWIDTH 33 0
BBX 25 32 4 0
VVECTOR 17 32
SWIDTH1 0 -1000
DWIDTH1 0 -40
BITMAP 
003C3000
00FE7000
01CFE000
01878000
00000000
F0000780
F8000780
FC000780
FC000780
FE000780
EF000780
EF800780
F7800780
F3C00780
F1E00780
F0F00780
F0780780
F0780780
F03C0780
F01E0780
F00F0780
F0078780
F003C780
F003C780
F001E780
F000F780
F0007B80
F0007B80
F0003F80
F0001F80
F0000F80
F0000780
ENDCHAR
STARTCHAR char85
ENCODING 133
SWIDTH 800 0
DWIDTH 32 0
BBX 28 32 2 0
VVECTOR 16 32
SWIDTH1 0 -1000
DWIDTH1 0 -40
BITMAP 
07801E00
07801E00
07801E00
00000000
00000000
00000000
005FA000
01FFF800
07FFFE00
0FC03F00
1F000F80
3E0007C0
3C0003C0
700000E0
780001E0
F00000F0
F00000F0
F00000F0
F00000F0
F00000F0
F00000F0
F00000F0
F00000F0
780001E0
700000E0
3C0003C0
3E0007C0
1F000F80
0FC03F00
07FFFE00
01FFF800
005FA000
ENDCHAR
STARTCHAR char86
ENCODING 134
SWIDTH 800 0
DWIDTH 32 0
BBX 24 32 4 0
VVECTOR 16 32
SWIDTH1 0 -1000
DWIDTH1 0 -40
BITMAP 
0F00F0
0F00F0
0F00F0
000000
000000
000000
F0000F
F0000F
F0000F
F0000F
F0000F
F0000F
F0000F
F0000F
F0000F
F0000F
F0000F
F0000F
F0000F
F0000F
F0000F
F0000F
F0000F
F0000F
F0000F
F0000F
78001E
7C003E
3F00FC
1FFFF8
07FFE0
01FF80
ENDCHAR
STARTCHAR char87
ENCODING 135
SWIDTH 550 0
DWIDTH 22 0
BBX 17 27 2 0
VVECTOR 11 32
SWIDTH1 0 -1000
DWIDTH1 0 -40
BITMAP 
003C00
007800
00F000
01E000
000000
000000
000000
07F800
1FFE00
3FFF00
7C0F80
780780
780780
000780
000F80
00FF80
07FB80
1FC780
7E0780
F80780
F00780
F00780
F00F80
F83F80
7FFB80
3FE780
0F8780
ENDCHAR
STARTCHAR char88
ENCODING 136
SWIDTH 550 0
DWIDTH 22 0
BBX 17 27 2 0
VVECTOR 11 32
SWIDTH1 0 -1000
DWIDTH1 0 -40
BITMAP 
0F0000
078000
03C000
01E000
000000
000000
000000
07F800
1FFE00
3FFF00
7C0F80
780780
780780
000780
000F80
00FF80
07FB80
3FC780
7E0780
F80780
F00780
F00780
F00F80
F83F80
7FFB80
3FE780
0F8780
ENDCHAR
STARTCHAR char89
ENCODING 137
SWIDTH 550 0
DWIDTH 22 0
BBX 17 27 2 0
VVECTOR 11 32
SWIDTH1 0 -1000
DWIDTH1 0 -40
BITMAP 
01E000
03F000
073800
0E1C00
000000
000000
000000
07F800
1FFE00
3FFF00
7C0F80
780780
780780
000780
000F80
00FF80
07FB80
3FC780
7E0780
F80780
F00780
F00780
F00F80
F83F80
7FFB80
3FE780
0F8780
ENDCHAR
STARTCHAR char8A
ENCODING 138
SWIDTH 550 0
DWIDTH 22 0
BBX 17 27 2 0
VVECTOR 11 32
SWIDTH1 0 -1000
DWIDTH1 0 -40
BITMAP 
1E1E00
1E1E00
1E1E00
000000
000000
000000
000000
07F800
1FFE00
3FFF00
7C0F80
780780
780780
000780
000F80
00FF80
07FB80
3FC780
7E0780
F80780
F00780
F00780
F00F80
F83F80
7FFB80
3FE780
0F8780
ENDCHAR
STARTCHAR char8B
ENCODING 139
SWIDTH 550 0
DWIDTH 22 0
BBX 17 28 2 0
VVECTOR 11 32
SWIDTH1 0 -1000
DWIDTH1 0 -40
BITMAP 
0F0300
3FC700
71FE00
607800
000000
000000
000000
000000
07F800
1FFE00
3FFF00
7C0F80
780780
780780
000780
000F80
00FF80
07FB80
3FC780
7E0780
F80780
F00780
F00780
F00F80
F83F80
7FFB80
3FE780
0F8780
ENDCHAR
STARTCHAR char8C
ENCODING 140
SWIDTH 550 0
DWIDTH 22 0
BBX 17 29 2 0
VVECTOR 11 32
SWIDTH1 0 -1000
DWIDTH1 0 -40
BITMAP 
01C000
063000
0C1800
0C1800
0C1800
063000
01C000
000000
000000
07F800
1FFE00
3FFF00
7C0F80
780780
780780
000780
000F80
00FF80
07FB80
3FC780
7E0780
F80780
F00780
F00780
F00F80
F83F80
7FFB80
3FE780
0F8780
ENDCHAR
STARTCHAR char8D
ENCODING 141
SWIDTH 600 0
DWIDTH 24 0
BBX 20 28 2 -8
VVECTOR 12 32
SWIDTH1 0 -1000
DWIDTH1 0 -40
BITMAP 
01F800
07FE00
1FFF80
3F0FC0
7C03E0
7801E0
F000F0
F000F0
F00000
F00000
F00000
F00000
F000F0
F000F0
7801E0
7C03E0
3F0FC0
1FFF80
07FE00
01F800
000000
000000
00F800
00F800
001800
001800
001800
00E000
ENDCHAR
STARTCHAR char8E
ENCODING 142
SWIDTH 600 0
DWIDTH 24 0
BBX 20 27 2 0
VVECTOR 12 32
SWIDTH1 0 -1000
DWIDTH1 0 -40
BITMAP 
000F00
001E00
003C00
007800
000000
000000
000000
01F800
07FE00
1FFF80
3F0FC0
7C03E0
7801E0
F000F0
F000F0
EFFF70
FFFFF0
EFFFF0
F00000
F00000
F00000
7801E0
7C03E0
3F0FC0
1FFF80
07FE00
01F800
ENDCHAR
STARTCHAR char8F
ENCODING 143
SWIDTH 600 0
DWIDTH 24 0
BBX 20 27 2 0
VVECTOR 12 32
SWIDTH1 0 -1000
DWIDTH1 0 -40
BITMAP 
078000
03C000
01E000
00F000
000000
000000
000000
01F800
07FE00
1FFF80
3F0FC0
7C03E0
7801E0
F000F0
F000F0
EFFF70
FFFFF0
EFFFF0
F00000
F00000
F00000
7801E0
7C03E0
3F0FC0
1FFF80
07FE00
01F800
ENDCHAR
STARTCHAR char90
ENCODING 144
SWIDTH 600 0
DWIDTH 24 0
BBX 20 27 2 0
VVECTOR 12 32
SWIDTH1 0 -1000
DWIDTH1 0 -40
BITMAP 
00F000
01F800
039C00
070E00
000000
000000
000000
01F800
07FE00
1FFF80
3F0FC0
7C03E0
7801E0
F000F0
F000F0
EFFF70
FFFFF0
EFFFF0
F00000
F00000
F00000
7801E0
7C03E0
3F0FC0
1FFF80
07FE00
01F800
ENDCHAR
STARTCHAR char91
ENCODING 145
SWIDTH 600 0
DWIDTH 24 0
BBX 20 27 2 0
VVECTOR 12 32
SWIDTH1 0 -1000
DWIDTH1 0 -40
BITMAP 
1E0780
1E0780
1E0780
000000
000000
000000
000000
01F800
07FE00
1FFF80
3F0FC0
7C03E0
7801E0
F000F0
F000F0
EFFF70
FFFFF0
EFFFF0
F00000
F00000
F00000
7801E0
7C03E0
3F0FC0
1FFF80
07FE00
01F800
ENDCHAR
STARTCHAR char92
ENCODING 146
SWIDTH 300 0
DWIDTH 12 0
BBX 7 27 4 0
VVECTOR 8 32
SWIDTH1 0 -1000
DWIDTH1 0 -40
BITMAP 
1E
3C
78
F0
00
00
00
F0
F0
F0
F0
F0
F0
F0
F0
F0
F0
F0
F0
F0
F0
F0
F0
F0
F0
F0
F0
ENDCHAR
STARTCHAR char93
ENCODING 147
SWIDTH 300 0
DWIDTH 12 0
BBX 7 27 1 0
VVECTOR 5 32
SWIDTH1 0 -1000
DWIDTH1 0 -40
BITMAP 
F0
78
3C
1E
00
00
00
1E
1E
1E
1E
1E
1E
1E
1E
1E
1E
1E
1E
1E
1E
1E
1E
1E
1E
1E
1E
ENDCHAR
STARTCHAR char94
ENCODING 148
SWIDTH 300 0
DWIDTH 12 0
BBX 10 27 1 0
VVECTOR 6 32
SWIDTH1 0 -1000
DWIDTH1 0 -40
BITMAP 
1E00
3F00
7380
E1C0
0000
0000
0000
1E00
1E00
1E00
1E00
1E00
1E00
1E00
1E00
1E00
1E00
1E00
1E00
1E00
1E00
1E00
1E00
1E00
1E00
1E00
1E00
ENDCHAR
STARTCHAR char95
ENCODING 149
SWIDTH 300 0
DWIDTH 12 0
BBX 12 27 0 0
VVECTOR 6 32
SWIDTH1 0 -1000
DWIDTH1 0 -40
BITMAP 
F0F0
F0F0
F0F0
0000
0000
0000
0000
0F00
0F00
0F00
0F00
0F00
0F00
0F00
0F00
0F00
0F00
0F00
0F00
0F00
0F00
0F00
0F00
0F00
0F00
0F00
0F00
ENDCHAR
STARTCHAR char96
ENCODING 150
SWIDTH 625 0
DWIDTH 25 0
BBX 19 28 3 0
VVECTOR 13 32
SWIDTH1 0 -1000
DWIDTH1 0 -40
BITMAP 
0F81C0
3FE3C0
78FF80
703E00
000000
000000
000000
000000
F0F800
F3FE00
EFFF80
FE0FC0
F803C0
F803E0
F001E0
F001E0
F001E0
F001E0
F001E0
F001E0
F001E0
F001E0
F001E0
F001E0
F001E0
F001E0
F001E0
F001E0
ENDCHAR
STARTCHAR char97
ENCODING 151
SWIDTH 625 0
DWIDTH 25 0
BBX 21 27 2 0
VVECTOR 13 32
SWIDTH1 0 -1000
DWIDTH1 0 -40
BITMAP 
000F00
001E00
003C00
007800
000000
000000
000000
01FC00
07FF00
1FFFC0
3F07E0
7C01F0
7800F0
F00078
F00078
F00078
F00078
F00078
F00078
F00078
F00078
7800F0
7C01F0
3F07E0
1FFFC0
07FF00
01FC00
ENDCHAR
STARTCHAR char98
ENCODING 152
SWIDTH 625 0
DWIDTH 25 0
BBX 21 27 2 0
VVECTOR 13 32
SWIDTH1 0 -1000
DWIDTH1 0 -40
BITMAP 
03C000
01E000
00F000
007800
000000
000000
000000
01FC00
07FF00
1FFFC0
3F07E0
7C01F0
7800F0
F00078
F00078
F00078
F00078
F00078
F00078
F00078
F00078
7800F0
7C01F0
3F07E0
1FFFC0
07FF00
01FC00
ENDCHAR
STARTCHAR char99
ENCODING 153
SWIDTH 625 0
DWIDTH 25 0
BBX 21 27 2 0
VVECTOR 13 32
SWIDTH1 0 -1000
DWIDTH1 0 -40
BITMAP 
00F000
01F800
039C00
070E00
000000
000000
000000
01FC00
07FF00
1FFFC0
3F07E0
7C01F0
7800F0
F00078
F00078
F00078
F00078
F00078
F00078
F00078
F00078
7800F0
7C01F0
3F07E0
1FFFC0
07FF00
01FC00
ENDCHAR
STARTCHAR char9A
ENCODING 154
SWIDTH 625 0
DWIDTH 25 0
BBX 21 27 2 0
VVECTOR 13 32
SWIDTH1 0 -1000
DWIDTH1 0 -40
BITMAP 
0F0780
0F0780
0F0780
000000
000000
000000
000000
01FC00
07FF00
1FFFC0
3F07E0
7C01F0
7800F0
F00078
F00078
F00078
F00078
F00078
F00078
F00078
F00078
7800F0
7C01F0
3F07E0
1FFFC0
07FF00
01FC00
ENDCHAR
STARTCHAR char9B
ENCODING 155
SWIDTH 625 0
DWIDTH 25 0
BBX 21 28 2 0
VVECTOR 13 32
SWIDTH1 0 -1000
DWIDTH1 0 -40
BITMAP 
03C0C0
0FF1C0
1C7F80
181E00
000000
000000
000000
000000
01FC00
07FF00
1FFFC0
3F07E0
7C01F0
7800F0
F00078
F00078
F00078
F00078
F00078
F00078
F00078
F00078
7800F0
7C01F0
3F07E0
1FFFC0
07FF00
01FC00
ENDCHAR
STARTCHAR char9C
ENCODING 156
SWIDTH 625 0
DWIDTH 25 0
BBX 19 27 3 0
VVECTOR 13 32
SWIDTH1 0 -1000
DWIDTH1 0 -40
BITMAP 
001E00
003C00
007800
00F000
000000
000000
000000
F001E0
F001E0
F001E0
F001E0
F001E0
F001E0
F001E0
F001E0
F001E0
F001E0
F001E0
F001E0
F001E0
F001E0
F803E0
7803E0
7E0FE0
3FFEE0
0FF9E0
03E1E0
ENDCHAR
STARTCHAR char9D
ENCODING 157
SWIDTH 625 0
DWIDTH 25 0
BBX 19 27 3 0
VVECTOR 13 32
SWIDTH1 0 -1000
DWIDTH1 0 -40
BITMAP 
078000
03C000
01E000
00F000
000000
000000
000000
F001E0
F001E0
F001E0
F001E0
F001E0
F001E0
F001E0
F001E0
F001E0
F001E0
F001E0
F001E0
F001E0
F001E0
F803E0
7803E0
7E0FE0
3FFEE0
0FF9E0
03E1E0
ENDCHAR
STARTCHAR char9E
ENCODING 158
SWIDTH 625 0
DWIDTH 25 0
BBX 19 27 3 0
VVECTOR 13 32
SWIDTH1 0 -1000
DWIDTH1 0 -40
BITMAP 
00F000
01F800
039C00
070E00
000000
000000
000000
F001E0
F001E0
F001E0
F001E0
F001E0
F001E0
F001E0
F001E0
F001E0
F001E0
F001E0
F001E0
F001E0
F001E0
F803E0
7803E0
7E0FE0
3FFEE0
0FF9E0
03E1E0
ENDCHAR
STARTCHAR char9F
ENCODING 159
SWIDTH 625 0
DWIDTH 25 0
BBX 19 27 3 0
VVECTOR 13 32
SWIDTH1 0 -1000
DWIDTH1 0 -40
BITMAP 
3C0780
3C0780
3C0780
000000
000000
000000
000000
F001E0
F001E0
F001E0
F001E0
F001E0
F001E0
F001E0
F001E0
F001E0
F001E0
F001E0
F001E0
F001E0
F001E0
F803E0
7803E0
7E0FE0
3FFEE0
0FF9E0
03E1E0
ENDCHAR
STARTCHAR charA0
ENCODING 160
SWIDTH 600 0
DWIDTH 24 0
BBX 20 27 2 0
VVECTOR 12 32
SWIDTH1 0 -1000
DWIDTH1 0 -40
BITMAP 
006000
006000
006000
006000
006000
006000
FFFFF0
006000
006000
006000
006000
006000
006000
006000
006000
006000
006000
006000
006000
006000
006000
006000
006000
006000
006000
006000
006000
ENDCHAR
STARTCHAR charA1
ENCODING 161
SWIDTH 350 0
DWIDTH 14 0
BBX 10 8 2 21
VVECTOR 7 32
SWIDTH1 0 -1000
DWIDTH1 0 -40
BITMAP 
1E00
6180
C0C0
C0C0
C0C0
C0C0
6180
1E00
ENDCHAR
STARTCHAR charA2
ENCODING 162
SWIDTH 600 0
DWIDTH 24 0
BBX 19 26 2 1
VVECTOR 12 32
SWIDTH1 0 -1000
DWIDTH1 0 -40
BITMAP 
006000
006000
006000
006000
03FC00
0FFF00
3E67C0
3861C0
7060E0
7060E0
E06000
E06000
E06000
E06000
E06000
E06000
7060E0
7060E0
3861C0
3E67C0
0FFF00
03FC00
006000
006000
006000
006000
ENDCHAR
STARTCHAR charA3
ENCODING 163
SWIDTH 600 0
DWIDTH 24 0
BBX 20 28 2 -1
VVECTOR 12 32
SWIDTH1 0 -1000
DWIDTH1 0 -40
BITMAP 
01F800
07FE00
0FFF00
0F0F00
1E0780
1E0780
1E0000
1E0000
1E0000
0F0000
0F0000
0F0000
FEFC00
FFFC00
0F0000
0F0000
078000
078000
078000
078000
078000
0F0000
0F0060
1E01F0
3DFFF0
FFFFC0
7FFF00
300000
ENDCHAR
STARTCHAR charA4
ENCODING 164
SWIDTH 350 0
DWIDTH 14 0
BBX 10 26 2 1
VVECTOR 7 32
SWIDTH1 0 -1000
DWIDTH1 0 -40
BITMAP 
0E00
3180
60C0
60C0
6000
6000
3000
1800
6C00
C600
C300
C180
C0C0
C0C0
60C0
30C0
18C0
0D80
0600
0300
0180
0180
C180
C180
6300
1C00
ENDCHAR
STARTCHAR charA5
ENCODING 165
SWIDTH 350 0
DWIDTH 14 0
BBX 9 8 2 11
VVECTOR 7 32
SWIDTH1 0 -1000
DWIDTH1 0 -40
BITMAP 
1C00
7F00
FF80
FF80
FF80
FF80
7F00
1C00
ENDCHAR
STARTCHAR charA6
ENCODING 166
SWIDTH 600 0
DWIDTH 24 0
BBX 19 27 3 0
VVECTOR 13 32
SWIDTH1 0 -1000
DWIDTH1 0 -40
BITMAP 
0F87E0
318600
618600
C18600
C18600
C18600
C18600
C18600
C18600
618600
318600
0F8600
018600
018600
018600
018600
018600
018600
018600
018600
018600
018600
018600
018600
018600
018600
018600
ENDCHAR
STARTCHAR charA7
ENCODING 167
SWIDTH 650 0
DWIDTH 26 0
BBX 20 27 4 0
VVECTOR 14 32
SWIDTH1 0 -1000
DWIDTH1 0 -40
BITMAP 
03F000
0FFE00
3FFF80
7E0FC0
7803C0
F001E0
F001E0
F001E0
F001E0
F001E0
F003C0
F00F80
F1FE00
F1FC00
F1FF80
F007E0
F001F0
F000F0
F000F0
F000F0
F000F0
F000F0
F001E0
F007E0
F3FFC0
F3FF00
F3F800
ENDCHAR
STARTCHAR charA8
ENCODING 168
SWIDTH 875 0
DWIDTH 35 0
BBX 29 23 3 2
VVECTOR 18 32
SWIDTH1 0 -1000
DWIDTH1 0 -40
BITMAP 
00FFF800
03000600
0C000180
180000C0
30000060
60000030
603F8030
C0306018
C0303018
C0303018
C0306018
C03FC018
C0318018
C030C018
C0306018
C0303018
60301830
60000030
30000060
180000C0
0C000180
03000600
00FFF800
ENDCHAR
STARTCHAR charA9
ENCODING 169
SWIDTH 875 0
DWIDTH 35 0
BBX 29 23 3 2
VVECTOR 18 32
SWIDTH1 0 -1000
DWIDTH1 0 -40
BITMAP 
00FFF800
03000600
0C000180
180000C0
30000060
60000030
60078030
C0186018
C0303018
C0600018
C0600018
C0600018
C0600018
C0600018
C0303018
C0186018
60078030
60000030
30000060
180000C0
0C000180
03000600
00FFF800
ENDCHAR
STARTCHAR charAA
ENCODING 170
SWIDTH 600 0
DWIDTH 24 0
BBX 19 6 2 22
VVECTOR 12 32
SWIDTH1 0 -1000
DWIDTH1 0 -40
BITMAP 
FFC060
10A0A0
109120
108A20
108420
108020
ENDCHAR
STARTCHAR charAB
ENCODING 171
SWIDTH 600 0
DWIDTH 24 0
BBX 7 4 9 28
VVECTOR 13 32
SWIDTH1 0 -1000
DWIDTH1 0 -40
BITMAP 
1E
3C
78
F0
ENDCHAR
STARTCHAR charAC
ENCODING 172
SWIDTH 600 0
DWIDTH 24 0
BBX 14 3 5 29
VVECTOR 12 32
SWIDTH1 0 -1000
DWIDTH1 0 -40
BITMAP 
F03C
F03C
F03C
ENDCHAR
STARTCHAR charAD
ENCODING 173
SWIDTH 875 0
DWIDTH 35 0
BBX 29 20 3 4
VVECTOR 18 32
SWIDTH1 0 -1000
DWIDTH1 0 -40
BITMAP 
00000180
00000300
00000600
00000C00
00001800
00003000
FFFFEFF8
FFFEFFF8
00018000
00030000
00060000
000C0000
FFFBFFF8
FFBFFFF8
00600000
00C00000
01800000
03000000
06000000
0C000000
ENDCHAR
STARTCHAR charAE
ENCODING 174
SWIDTH 1000 0
DWIDTH 40 0
BBX 37 27 1 0
VVECTOR 20 32
SWIDTH1 0 -1000
DWIDTH1 0 -40
BITMAP 
003FFFFFF8
003FFFFFF8
007FFBFFF8
00783C0000
00783C0000
00F03C0000
00F03C0000
01E03C0000
01E03C0000
03C03C0000
03C03C0000
07803BFFE0
07803FFFE0
07803FFFE0
0F003C0000
0EFFFC0000
1FFFFC0000
1FFFDC0000
1E003C0000
3C003C0000
3C003C0000
78003C0000
78003C0000
78003C0000
F0003BFFF8
F0003FFFF8
F0003FFFF8
ENDCHAR
STARTCHAR charAF
ENCODING 175
SWIDTH 800 0
DWIDTH 32 0
BBX 28 27 2 0
VVECTOR 16 32
SWIDTH1 0 -1000
DWIDTH1 0 -40
BITMAP 
007FE030
01FFF860
07FFFEC0
0FC03F80
1F000F80
3E0007C0
3C000FC0
780019E0
780031E0
F00060F0
F000C0F0
F00180F0
F00300F0
F00600F0
F00C00F0
F01800F0
F03000F0
F06000F0
78C001E0
798001E0
3F0003C0
3E0007C0
1F000F80
1FC03F00
37FFFE00
61FFF800
C07FE000
ENDCHAR
STARTCHAR charB0
ENCODING 176
SWIDTH 875 0
DWIDTH 35 0
BBX 31 14 2 7
VVECTOR 18 32
SWIDTH1 0 -1000
DWIDTH1 0 -40
BITMAP 
07C007C0
1FF01FF0
3C383878
701C701C
E00EE00E
E007C00E
E003800E
E003800E
E007C00E
E00EE00E
701C701C
3C383878
1FF01FF0
07C007C0
ENDCHAR
STARTCHAR charB1
ENCODING 177
SWIDTH 875 0
DWIDTH 35 0
BBX 29 24 3 0
VVECTOR 18 32
SWIDTH1 0 -1000
DWIDTH1 0 -40
BITMAP 
00070000
00070000
00070000
00070000
00070000
00070000
00070000
00070000
00070000
FFFFFFF8
FFFFFFF8
00070000
00070000
00070000
00070000
00070000
00070000
00070000
00070000
00070000
00000000
00000000
FFFFFFF8
FFFFFFF8
ENDCHAR
STARTCHAR charB2
ENCODING 178
SWIDTH 600 0
DWIDTH 24 0
BBX 20 23 2 0
VVECTOR 12 32
SWIDTH1 0 -1000
DWIDTH1 0 -40
BITMAP 
000E00
001C00
003800
007000
00E000
01C000
038000
070000
0E0000
1C0000
0E0000
070000
038000
01C000
00E000
007000
003800
001C00
000E00
000000
000000
FFFFF0
FFFFF0
ENDCHAR
STARTCHAR charB3
ENCODING 179
SWIDTH 600 0
DWIDTH 24 0
BBX 20 23 2 0
VVECTOR 12 32
SWIDTH1 0 -1000
DWIDTH1 0 -40
BITMAP 
070000
038000
01C000
00E000
007000
003800
001C00
000E00
000700
000380
000700
000E00
001C00
003800
007000
00E000
01C000
038000
070000
000000
000000
FFFFF0
FFFFF0
ENDCHAR
STARTCHAR charB4
ENCODING 180
SWIDTH 600 0
DWIDTH 24 0
BBX 22 27 1 0
VVECTOR 12 32
SWIDTH1 0 -1000
DWIDTH1 0 -40
BITMAP 
F0003C
F0003C
780078
780078
3C00F0
1E01E0
1E01E0
0F03C0
078780
078780
03CF00
7DFEF8
7FFFF8
00FC00
007800
007800
007800
7FB7F8
7FFFF8
007800
007800
007800
007800
007800
007800
007800
007800
ENDCHAR
STARTCHAR charB5
ENCODING 181
SWIDTH 600 0
DWIDTH 24 0
BBX 21 23 2 -3
VVECTOR 13 32
SWIDTH1 0 -1000
DWIDTH1 0 -40
BITMAP 
F00780
F00780
F00780
F00780
F00780
F00780
F00780
F00780
F00780
F00780
F00780
F00780
F00780
F00780
F00780
F80780
FC0FC0
EFFFF8
F7FDF8
F1F078
F00000
F00000
F00000
ENDCHAR
STARTCHAR charB6
ENCODING 182
SWIDTH 600 0
DWIDTH 24 0
BBX 19 27 2 0
VVECTOR 12 32
SWIDTH1 0 -1000
DWIDTH1 0 -40
BITMAP 
03F000
03FC00
03FF00
001F80
0007C0
0003C0
0001E0
0001E0
01F1E0
07FCE0
1FFF60
3F1FE0
7C07E0
7803E0
F001E0
F001E0
F001E0
F001E0
F001E0
F001E0
F001E0
7803C0
7C07C0
3F1F80
1FFF00
07FC00
01F000
ENDCHAR
STARTCHAR charB7
ENCODING 183
SWIDTH 875 0
DWIDTH 35 0
BBX 30 36 2 -7
VVECTOR 17 32
SWIDTH1 0 -1000
DWIDTH1 0 -40
BITMAP 
FFFFFF80
F7FFFFC0
780001E0
3C0000F0
1E000078
0F00003C
07800000
03C00000
01E00000
00F00000
00780000
003C0000
001E0000
000F0000
00078000
0003C000
0001E000
0000F000
0001E000
0003C000
00078000
000F0000
001E0000
003C0000
00780000
00F00000
01E00000
03C00000
07800000
0F000000
1E00003C
3C000078
780000F0
F00001E0
EFFFFFC0
FFFFFF80
ENDCHAR
STARTCHAR charB8
ENCODING 184
SWIDTH 875 0
DWIDTH 35 0
BBX 30 27 2 0
VVECTOR 17 32
SWIDTH1 0 -1000
DWIDTH1 0 -40
BITMAP 
FFFFFFFC
FFFFFFFC
FEDFEDFC
01E01E00
01E01E00
01E01E00
01E01E00
01E01E00
01E01E00
01E01E00
01E01E00
01E01E00
01E01E00
01E01E00
01E01E00
01E01E00
01E01E00
01E01E00
01E01E00
01E01E00
01E01E00
01E01E00
01E01E00
01E01E00
01E01E00
01E01E00
01E01E00
ENDCHAR
STARTCHAR charB9
ENCODING 185
SWIDTH 875 0
DWIDTH 35 0
BBX 29 20 3 0
VVECTOR 18 32
SWIDTH1 0 -1000
DWIDTH1 0 -40
BITMAP 
1FFFFFF8
7FFFFFF8
FFF7DFF8
C0783C00
80783C00
00783C00
00783C00
00F03C00
00F03C00
00F03C00
00F03C00
01E03C00
01E03C00
01E03C00
01E03C00
03C03C00
03C03C00
03C03C00
03C03C00
01801800
ENDCHAR
STARTCHAR charBA
ENCODING 186
SWIDTH 350 0
DWIDTH 14 0
BBX 11 36 1 -7
VVECTOR 7 32
SWIDTH1 0 -1000
DWIDTH1 0 -40
BITMAP 
01E0
07E0
0700
0E00
0E00
0E00
0E00
0E00
0E00
0E00
0E00
0E00
0E00
0E00
0E00
0E00
0E00
0E00
0E00
0E00
0E00
0E00
0E00
0E00
0E00
0E00
0E00
0E00
0E00
0E00
0E00
0E00
0E00
1C00
FC00
F000
ENDCHAR
STARTCHAR charBB
ENCODING 187
SWIDTH 550 0
DWIDTH 22 0
BBX 17 25 2 2
VVECTOR 11 32
SWIDTH1 0 -1000
DWIDTH1 0 -40
BITMAP 
07F800
1FFE00
3FFF00
7C0F80
780780
780780
000780
000F80
00FF80
07FB80
3FC780
7E0780
F80780
F00780
F00780
F00F80
F83F80
7FFB80
3FE780
0F8780
000000
000000
000000
FFFF80
FFFF80
ENDCHAR
STARTCHAR charBC
ENCODING 188
SWIDTH 625 0
DWIDTH 25 0
BBX 21 25 2 2
VVECTOR 13 32
SWIDTH1 0 -1000
DWIDTH1 0 -40
BITMAP 
01FC00
07FF00
1FFFC0
3F07E0
7C01F0
7800F0
F00078
F00078
F00078
F00078
F00078
F00078
F00078
F00078
7800F0
7C01F0
3F07E0
1FFFC0
07FF00
01FC00
000000
000000
000000
7FFFF0
7FFFF0
ENDCHAR
STARTCHAR charBD
ENCODING 189
SWIDTH 875 0
DWIDTH 35 0
BBX 27 27 4 0
VVECTOR 18 32
SWIDTH1 0 -1000
DWIDTH1 0 -40
BITMAP 
01FFF000
07FFFC00
1FFFFF00
3F001F80
7C0007C0
780003C0
F80003E0
F00001E0
F00001E0
F00001E0
F00001E0
780003C0
780003C0
3C000780
3C000780
1E000F00
1E000F00
0F001E00
0F001E00
07803C00
07803C00
03C07800
03C07800
41E0F040
7EE0EFC0
7FE0FFC0
3FE0FF80
ENDCHAR
STARTCHAR charBE
ENCODING 190
SWIDTH 900 0
DWIDTH 36 0
BBX 32 20 2 0
VVECTOR 18 32
SWIDTH1 0 -1000
DWIDTH1 0 -40
BITMAP 
07F80FC0
1FFE3FF0
3FFF7FFC
7C07F87E
7803E01E
7803C00F
0003C00F
0007C00F
007FBFF7
07FDFFFF
3FE3BFFF
7F03C000
F803C000
F003C000
F003C00F
F007E01F
F81FF87E
7FFE7FFC
3FF81FF0
0FE007C0
ENDCHAR
STARTCHAR charBF
ENCODING 191
SWIDTH 625 0
DWIDTH 25 0
BBX 21 20 2 0
VVECTOR 13 32
SWIDTH1 0 -1000
DWIDTH1 0 -40
BITMAP 
01FC18
07FF30
1FFFE0
3F07E0
7C01F0
7803F0
F00678
F00C78
F01878
F03078
F06078
F0C078
F18078
F30078
7E00F0
7C01F0
3F07E0
3FFFC0
67FF00
C1FC00
ENDCHAR
STARTCHAR charC0
ENCODING 192
SWIDTH 600 0
DWIDTH 24 0
BBX 18 27 3 0
VVECTOR 12 32
SWIDTH1 0 -1000
DWIDTH1 0 -40
BITMAP 
03C000
03C000
03C000
000000
000000
000000
000000
000000
03C000
03C000
03C000
03C000
07C000
0F8000
1F0000
3E0000
7C0000
F80000
F00000
F003C0
F003C0
F003C0
F807C0
7E1F80
3FFF00
0FFC00
03F000
ENDCHAR
STARTCHAR charC1
ENCODING 193
SWIDTH 350 0
DWIDTH 14 0
BBX 4 27 5 0
VVECTOR 7 32
SWIDTH1 0 -1000
DWIDTH1 0 -40
BITMAP 
F0
F0
F0
00
00
00
00
00
F0
F0
F0
F0
F0
F0
F0
F0
F0
F0
F0
F0
F0
F0
F0
F0
F0
F0
F0
ENDCHAR
STARTCHAR charC2
ENCODING 194
SWIDTH 875 0
DWIDTH 35 0
BBX 29 8 3 7
VVECTOR 18 32
SWIDTH1 0 -1000
DWIDTH1 0 -40
BITMAP 
FFFFFFF8
FFFFFFF8
00000038
00000038
00000038
00000038
00000038
00000038
ENDCHAR
STARTCHAR charC3
ENCODING 195
SWIDTH 925 0
DWIDTH 37 0
BBX 33 36 2 -7
VVECTOR 19 32
SWIDTH1 0 -1000
DWIDTH1 0 -40
BITMAP 
0000003F80
0000003F80
0000007000
0000007000
000000E000
000000E000
000001C000
000001C000
0000038000
0000038000
0000070000
0000070000
00000E0000
00000E0000
00001C0000
00001C0000
0000380000
0000380000
0000700000
0000700000
0000E00000
0000E00000
0001C00000
0001C00000
0003800000
0003800000
0007000000
0007000000
FC0E000000
FE0E000000
0F1C000000
079C000000
03D8000000
01F8000000
00F0000000
0070000000
ENDCHAR
STARTCHAR charC4
ENCODING 196
SWIDTH 600 0
DWIDTH 24 0
BBX 16 33 4 -6
VVECTOR 12 32
SWIDTH1 0 -1000
DWIDTH1 0 -40
BITMAP 
003F
00FF
01FF
01E0
03C0
03C0
03C0
03C0
03C0
03C0
03C0
FDBF
FFFF
FDBF
03C0
03C0
03C0
03C0
03C0
03C0
03C0
03C0
03C0
03C0
03C0
03C0
03C0
03C0
03C0
0780
FF80
FF00
FC00
ENDCHAR
STARTCHAR charC5
ENCODING 197
SWIDTH 875 0
DWIDTH 35 0
BBX 29 10 3 9
VVECTOR 18 32
SWIDTH1 0 -1000
DWIDTH1 0 -40
BITMAP 
1FFC0018
7FFF8078
F00FFFF0
C001FFC0
00000000
00000000
1FFC0018
7FFF8078
F00FFFF0
C001FFC0
ENDCHAR
STARTCHAR charC6
ENCODING 198
SWIDTH 875 0
DWIDTH 35 0
BBX 31 27 2 0
VVECTOR 18 32
SWIDTH1 0 -1000
DWIDTH1 0 -40
BITMAP 
00038000
0007C000
0007C000
000DE000
000DE000
0018F000
0018F000
00307800
00307800
00603C00
00C01E00
00C01E00
01800F00
01800F00
03000780
03000780
060003C0
0C0001E0
0C0001E0
180000F0
180000F0
30000078
30000078
6000003C
5FFFFFDC
FFFFFFFE
FFFFFFFE
ENDCHAR
STARTCHAR charC7
ENCODING 199
SWIDTH 600 0
DWIDTH 24 0
BBX 18 13 3 6
VVECTOR 12 32
SWIDTH1 0 -1000
DWIDTH1 0 -40
BITMAP 
0381C0
070380
0E0700
1C0E00
381C00
703800
E07000
703800
381C00
1C0E00
0E0700
070380
0381C0
ENDCHAR
STARTCHAR charC8
ENCODING 200
SWIDTH 600 0
DWIDTH 24 0
BBX 18 13 3 6
VVECTOR 12 32
SWIDTH1 0 -1000
DWIDTH1 0 -40
BITMAP 
E07000
703800
381C00
1C0E00
0E0700
070380
0381C0
070380
0E0700
1C0E00
381C00
703800
E07000
ENDCHAR
STARTCHAR charC9
ENCODING 201
SWIDTH 875 0
DWIDTH 35 0
BBX 30 3 3 0
VVECTOR 18 32
SWIDTH1 0 -1000
DWIDTH1 0 -40
BITMAP 
F007803C
F007803C
F007803C
ENDCHAR
STARTCHAR charCA
ENCODING 202
SWIDTH 350 0
DWIDTH 14 0
BBX 0 0 1 -8
VVECTOR 1 -8
SWIDTH1 0 0
DWIDTH1 0 0
BITMAP 
ENDCHAR
STARTCHAR charCB
ENCODING 203
SWIDTH 675 0
DWIDTH 27 0
BBX 25 32 1 0
VVECTOR 14 32
SWIDTH1 0 -1000
DWIDTH1 0 -40
BITMAP 
01E00000
00F00000
00780000
003C0000
00000000
00000000
003E0000
003E0000
007F0000
00770000
00F78000
00E38000
01E3C000
01C1C000
03C1E000
03C1E000
0780F000
0780F000
0F007800
0F007800
0F007800
1EFFBC00
1FFFFC00
3FFFFE00
3C001E00
3C001E00
78000F00
78000F00
78000F00
F0000780
F0000780
F0000780
ENDCHAR
STARTCHAR charCC
ENCODING 204
SWIDTH 675 0
DWIDTH 27 0
BBX 25 32 1 0
VVECTOR 14 32
SWIDTH1 0 -1000
DWIDTH1 0 -40
BITMAP 
00F03000
03FC7000
071FE000
06078000
00000000
00000000
003E0000
003E0000
007F0000
00770000
00F78000
00E38000
01E3C000
01C1C000
03C1E000
03C1E000
0780F000
0780F000
0F007800
0F007800
0F007800
1EFFBC00
1FFFFC00
3FFFFE00
3C001E00
3C001E00
78000F00
78000F00
78000F00
F0000780
F0000780
F0000780
ENDCHAR
STARTCHAR charCD
ENCODING 205
SWIDTH 800 0
DWIDTH 32 0
BBX 28 32 2 0
VVECTOR 16 32
SWIDTH1 0 -1000
DWIDTH1 0 -40
BITMAP 
00781800
01FE3800
038FF000
0303C000
00000000
00000000
005FA000
01FFF800
07FFFE00
0FC03F00
1F000F80
3E0007C0
3C0003C0
700000E0
780001E0
F00000F0
F00000F0
F00000F0
F00000F0
F00000F0
F00000F0
F00000F0
F00000F0
780001E0
700000E0
3C0003C0
3E0007C0
1F000F80
0FC03F00
07FFFE00
01FFF800
005FA000
ENDCHAR
STARTCHAR charCE
ENCODING 206
SWIDTH 1150 0
DWIDTH 46 0
BBX 42 27 2 0
VVECTOR 23 32
SWIDTH1 0 -1000
DWIDTH1 0 -40
BITMAP 
005FA3FFFFC0
01FFFBFFFFC0
07FFFDBFFFC0
0FC03FC00000
1F000FC00000
3E0007C00000
3C0003C00000
780003C00000
780003C00000
F00003C00000
F00003C00000
F00003C00000
F00003BFFF80
F00003FFFF80
F00003BFFF80
F00003C00000
F00003C00000
F00003C00000
780003C00000
780003C00000
3C0003C00000
3E0007C00000
1F000FC00000
0FC03FC00000
07FFFDBFFFC0
01FFFBFFFFC0
005FA3FFFFC0
ENDCHAR
STARTCHAR charCF
ENCODING 207
SWIDTH 975 0
DWIDTH 39 0
BBX 35 20 2 0
VVECTOR 20 32
SWIDTH1 0 -1000
DWIDTH1 0 -40
BITMAP 
01F801F000
07FE07FC00
1FFF9FFF00
3F0FFF1F80
7C03FC07C0
7801F803C0
F000F001E0
F000F001E0
F000EFFEE0
F000FFFFE0
F000EFFFE0
F000F00000
F000F00000
F000F00000
7801F803C0
7C03FC07C0
3F0FFF1F80
1FFF9FFF00
0FFE07FC00
03F801F000
ENDCHAR
STARTCHAR charD0
ENCODING 208
SWIDTH 350 0
DWIDTH 14 0
BBX 10 2 2 13
VVECTOR 7 32
SWIDTH1 0 -1000
DWIDTH1 0 -40
BITMAP 
FFC0
FFC0
ENDCHAR
STARTCHAR charD1
ENCODING 209
SWIDTH 875 0
DWIDTH 35 0
BBX 35 2 0 13
VVECTOR 18 32
SWIDTH1 0 -1000
DWIDTH1 0 -40
BITMAP 
FFFFFFFFE0
FFFFFFFFE0
ENDCHAR
STARTCHAR charD2
ENCODING 210
SWIDTH 550 0
DWIDTH 22 0
BBX 16 9 3 19
VVECTOR 11 32
SWIDTH1 0 -1000
DWIDTH1 0 -40
BITMAP 
1E0F
1E0F
3C1E
3C1E
783C
783C
F87C
F87C
F87C
ENDCHAR
STARTCHAR charD3
ENCODING 211
SWIDTH 550 0
DWIDTH 22 0
BBX 16 9 3 19
VVECTOR 11 32
SWIDTH1 0 -1000
DWIDTH1 0 -40
BITMAP 
3E1F
3E1F
3E1F
3C1E
3C1E
783C
783C
F078
F078
ENDCHAR
STARTCHAR charD4
ENCODING 212
SWIDTH 325 0
DWIDTH 13 0
BBX 7 9 3 19
VVECTOR 7 32
SWIDTH1 0 -1000
DWIDTH1 0 -40
BITMAP 
1E
1E
3C
3C
78
78
F8
F8
F8
ENDCHAR
STARTCHAR charD5
ENCODING 213
SWIDTH 325 0
DWIDTH 13 0
BBX 7 9 3 19
VVECTOR 7 32
SWIDTH1 0 -1000
DWIDTH1 0 -40
BITMAP 
3E
3E
3E
3C
3C
78
78
F0
F0
ENDCHAR
STARTCHAR charD6
ENCODING 214
SWIDTH 875 0
DWIDTH 35 0
BBX 29 19 3 5
VVECTOR 18 32
SWIDTH1 0 -1000
DWIDTH1 0 -40
BITMAP 
00070000
000F8000
000F8000
000F8000
00070000
00000000
00000000
00000000
00000000
FFFFFFF8
FFFFFFF8
00000000
00000000
00000000
00070000
000F8000
000F8000
000F8000
00070000
ENDCHAR
STARTCHAR charD7
ENCODING 215
SWIDTH 875 0
DWIDTH 35 0
BBX 25 26 5 1
VVECTOR 18 32
SWIDTH1 0 -1000
DWIDTH1 0 -40
BITMAP 
00080000
001C0000
003E0000
00770000
00E38000
01C1C000
0380E000
07007000
0E003800
1C001C00
38000E00
70000700
E0000380
E0000380
70000700
38000E00
1C001C00
0E003800
07007000
0380E000
01C1C000
00E38000
00770000
003E0000
001C0000
00080000
ENDCHAR
STARTCHAR charD8
ENCODING 216
SWIDTH 600 0
DWIDTH 24 0
BBX 22 35 1 -8
VVECTOR 12 32
SWIDTH1 0 -1000
DWIDTH1 0 -40
BITMAP 
1E01E0
1E01E0
1E01E0
000000
000000
000000
000000
F0003C
F0003C
78003C
780078
3C0078
3C00F0
1E00F0
1E00F0
0F01E0
0F01E0
0781E0
0783C0
03C3C0
03C380
01E780
01E700
00F700
00F600
007E00
007C00
003C00
003800
003800
007800
00F000
3FF000
3FE000
3F8000
ENDCHAR
STARTCHAR missing
ENCODING -1
SWIDTH 600 0
DWIDTH 24 0
BBX 20 31 2 -2
VVECTOR 12 32
SWIDTH1 0 -1000
DWIDTH1 0 -40
BITMAP 
FFFFF0
FFFFF0
FC07F0
F001F0
E000F0
C00070
C00030
C0E030
C1F030
C1F030
C1F030
FFF030
FFE030
FFC070
FF80F0
FF81F0
FF03F0
FF03F0
FF07F0
FF07F0
FF07F0
FFFFF0
FFFFF0
FFFFF0
FF07F0
FF07F0
FF07F0
FF07F0
FF07F0
FFFFF0
FFFFF0
ENDCHAR
ENDFONT
